%TF.GenerationSoftware,KiCad,Pcbnew,6.0.7-f9a2dced07~116~ubuntu20.04.1*%
%TF.CreationDate,2022-09-11T18:48:07+02:00*%
%TF.ProjectId,demoDino,64656d6f-4469-46e6-9f2e-6b696361645f,rev?*%
%TF.SameCoordinates,Original*%
%TF.FileFunction,Copper,L1,Top*%
%TF.FilePolarity,Positive*%
%FSLAX46Y46*%
G04 Gerber Fmt 4.6, Leading zero omitted, Abs format (unit mm)*
G04 Created by KiCad (PCBNEW 6.0.7-f9a2dced07~116~ubuntu20.04.1) date 2022-09-11 18:48:07*
%MOMM*%
%LPD*%
G01*
G04 APERTURE LIST*
%TA.AperFunction,ComponentPad*%
%ADD10C,5.000000*%
%TD*%
G04 APERTURE END LIST*
D10*
%TO.P,svg2mod,*%
%TO.N,*%
X80250000Y-31200000D03*
%TD*%
%TA.AperFunction,NonConductor*%
G36*
X94955439Y-25198241D02*
G01*
X95013589Y-25238974D01*
X95018435Y-25245455D01*
X95253798Y-25582272D01*
X95263523Y-25598718D01*
X95693309Y-26470291D01*
X95696967Y-26478422D01*
X96133152Y-27547604D01*
X96136393Y-27556489D01*
X96462666Y-28567148D01*
X96464210Y-28572303D01*
X96716213Y-29484411D01*
X96717729Y-29490481D01*
X96718282Y-29492954D01*
X96718975Y-29497779D01*
X96720402Y-29502439D01*
X96720402Y-29502440D01*
X96728010Y-29527288D01*
X96728981Y-29530622D01*
X96736380Y-29557403D01*
X96738177Y-29561516D01*
X96739551Y-29565393D01*
X96741273Y-29570608D01*
X96966054Y-30304780D01*
X96966129Y-30305027D01*
X96977918Y-30343817D01*
X97323822Y-31481932D01*
X97337619Y-31527329D01*
X97338754Y-31531297D01*
X97471309Y-32025313D01*
X97483806Y-32071889D01*
X97487546Y-32092625D01*
X97489421Y-32112364D01*
X97492744Y-32120703D01*
X97503324Y-32147255D01*
X97505340Y-32152672D01*
X97505971Y-32154493D01*
X97507130Y-32158815D01*
X97508894Y-32162936D01*
X97508894Y-32162937D01*
X97518128Y-32184514D01*
X97519339Y-32187444D01*
X97543340Y-32247674D01*
X97547359Y-32252813D01*
X97549927Y-32258814D01*
X97591150Y-32308874D01*
X97593137Y-32311349D01*
X97633069Y-32362412D01*
X97638369Y-32366217D01*
X97642518Y-32371255D01*
X97696147Y-32407743D01*
X97698677Y-32409511D01*
X97751394Y-32447355D01*
X97757551Y-32449520D01*
X97762945Y-32453190D01*
X97786065Y-32460671D01*
X97824630Y-32473150D01*
X97827633Y-32474164D01*
X97888804Y-32495674D01*
X97895319Y-32496024D01*
X97901528Y-32498033D01*
X97929349Y-32498825D01*
X97966321Y-32499877D01*
X97969491Y-32500007D01*
X98025290Y-32503003D01*
X98025292Y-32503003D01*
X98034252Y-32503484D01*
X98040607Y-32501990D01*
X98047127Y-32502176D01*
X98055805Y-32499904D01*
X98055808Y-32499904D01*
X98092649Y-32490260D01*
X98109868Y-32485752D01*
X98112931Y-32484992D01*
X98126596Y-32481780D01*
X98143201Y-32477877D01*
X98147702Y-32476052D01*
X98148182Y-32475899D01*
X98154471Y-32474077D01*
X98179350Y-32467564D01*
X98179356Y-32467562D01*
X98188037Y-32465289D01*
X98208402Y-32453067D01*
X98225876Y-32444346D01*
X98676779Y-32261469D01*
X99036991Y-32115375D01*
X99041751Y-32113555D01*
X99768004Y-31852676D01*
X99823068Y-31832896D01*
X99832289Y-31829979D01*
X100690107Y-31594412D01*
X100698102Y-31592495D01*
X101058035Y-31518558D01*
X101676887Y-31391434D01*
X101683275Y-31390292D01*
X102818371Y-31217472D01*
X102820961Y-31217106D01*
X103645954Y-31108972D01*
X103968411Y-31066707D01*
X103997949Y-31066328D01*
X106066977Y-31283709D01*
X106068488Y-31283878D01*
X107736429Y-31481249D01*
X107747896Y-31483147D01*
X108337328Y-31608913D01*
X108726432Y-31691936D01*
X108760156Y-31704375D01*
X109216828Y-31951791D01*
X109259669Y-31989811D01*
X109499315Y-32328614D01*
X109539092Y-32384850D01*
X109554378Y-32413843D01*
X109707286Y-32826641D01*
X109846391Y-33202172D01*
X109850682Y-33216221D01*
X110131141Y-34371763D01*
X110133826Y-34386698D01*
X110164566Y-34646894D01*
X110273160Y-35566077D01*
X110282271Y-35643199D01*
X110283139Y-35657250D01*
X110284997Y-35980200D01*
X110290128Y-36872170D01*
X110289011Y-36889653D01*
X110149281Y-37930930D01*
X110148809Y-37933754D01*
X110148079Y-37936343D01*
X110144650Y-37964681D01*
X110143816Y-37971576D01*
X110143609Y-37973197D01*
X110140407Y-37997063D01*
X110139300Y-38005311D01*
X110139324Y-38007990D01*
X110139057Y-38010907D01*
X110034438Y-38875545D01*
X110033193Y-38883626D01*
X110023453Y-38935540D01*
X110028232Y-38983638D01*
X110028818Y-38993323D01*
X110029873Y-39041645D01*
X110032581Y-39050205D01*
X110033522Y-39055890D01*
X110035584Y-39065923D01*
X110036968Y-39071549D01*
X110037856Y-39080484D01*
X110041216Y-39088811D01*
X110055932Y-39125281D01*
X110059220Y-39134432D01*
X110073797Y-39180521D01*
X110078799Y-39187978D01*
X110081297Y-39193169D01*
X110086119Y-39202271D01*
X110089000Y-39207236D01*
X110092359Y-39215560D01*
X110122290Y-39253494D01*
X110128005Y-39261340D01*
X110154933Y-39301488D01*
X110161823Y-39307239D01*
X110165697Y-39311541D01*
X110172828Y-39318870D01*
X110177021Y-39322859D01*
X110182583Y-39329909D01*
X110221963Y-39357921D01*
X110229646Y-39363846D01*
X110266760Y-39394822D01*
X110274994Y-39398411D01*
X110279896Y-39401438D01*
X110288829Y-39406490D01*
X110293960Y-39409135D01*
X110301275Y-39414339D01*
X110309756Y-39417280D01*
X110309760Y-39417282D01*
X110346921Y-39430168D01*
X110355980Y-39433707D01*
X110392055Y-39449430D01*
X110392060Y-39449431D01*
X110400287Y-39453017D01*
X110453999Y-39459850D01*
X110456689Y-39460192D01*
X110463264Y-39461206D01*
X111144743Y-39584753D01*
X111150579Y-39585954D01*
X111170159Y-39590469D01*
X111170162Y-39590469D01*
X111174904Y-39591563D01*
X111179764Y-39591914D01*
X111179769Y-39591915D01*
X111180485Y-39591967D01*
X111187430Y-39592845D01*
X111187433Y-39592815D01*
X111191883Y-39593299D01*
X111196302Y-39594100D01*
X111200787Y-39594267D01*
X111200791Y-39594267D01*
X111222232Y-39595063D01*
X111226641Y-39595304D01*
X112006150Y-39651660D01*
X112016171Y-39652789D01*
X113007616Y-39804896D01*
X113014374Y-39806122D01*
X114079811Y-40029593D01*
X114086910Y-40031298D01*
X115069622Y-40297669D01*
X115076190Y-40299643D01*
X116423945Y-40744986D01*
X116427367Y-40746172D01*
X117764792Y-41231738D01*
X117768241Y-41233048D01*
X118979580Y-41713421D01*
X118984053Y-41715295D01*
X119105192Y-41768817D01*
X119954332Y-42143988D01*
X119962602Y-42148009D01*
X120177948Y-42262634D01*
X120598736Y-42486613D01*
X120603471Y-42489266D01*
X121280745Y-42888110D01*
X121288117Y-42892803D01*
X121298666Y-42900045D01*
X121298669Y-42900047D01*
X121302674Y-42902796D01*
X121314061Y-42908257D01*
X121323505Y-42913291D01*
X121327829Y-42915838D01*
X121327838Y-42915843D01*
X121331692Y-42918112D01*
X121348798Y-42925143D01*
X121355376Y-42928069D01*
X121759968Y-43122085D01*
X121812743Y-43169576D01*
X121831465Y-43238059D01*
X121816999Y-43294359D01*
X121693679Y-43528772D01*
X121638369Y-43633908D01*
X121633407Y-43642500D01*
X121277552Y-44206263D01*
X121190682Y-44343886D01*
X121186199Y-44350160D01*
X121186209Y-44350167D01*
X121183462Y-44354177D01*
X121180405Y-44357973D01*
X121177972Y-44362188D01*
X121177965Y-44362199D01*
X121166879Y-44381410D01*
X121164312Y-44385661D01*
X121151535Y-44405904D01*
X121149706Y-44409992D01*
X121148795Y-44411691D01*
X121144126Y-44420839D01*
X121107383Y-44484506D01*
X120479175Y-45573063D01*
X120476796Y-45576919D01*
X120474483Y-45579903D01*
X120458134Y-45609483D01*
X120457059Y-45611388D01*
X120441692Y-45638014D01*
X120440290Y-45641510D01*
X120438141Y-45645654D01*
X120078480Y-46296368D01*
X119738240Y-46911945D01*
X119735527Y-46916543D01*
X119733007Y-46919938D01*
X119730739Y-46924250D01*
X119730737Y-46924254D01*
X119717627Y-46949185D01*
X119716420Y-46951425D01*
X119701923Y-46977652D01*
X119700431Y-46981584D01*
X119697981Y-46986543D01*
X119602015Y-47169029D01*
X119146589Y-48035052D01*
X119141116Y-48044450D01*
X119134554Y-48054677D01*
X119132585Y-48059135D01*
X119127280Y-48071142D01*
X119123545Y-48078872D01*
X119116619Y-48092042D01*
X119115115Y-48096269D01*
X119112274Y-48104253D01*
X119108821Y-48112924D01*
X119035735Y-48278354D01*
X118889358Y-48609677D01*
X118886486Y-48615737D01*
X118860846Y-48666308D01*
X118859197Y-48675133D01*
X118852660Y-48710111D01*
X118850111Y-48721033D01*
X118844856Y-48739747D01*
X118838059Y-48763950D01*
X118838155Y-48772923D01*
X118838155Y-48772924D01*
X118838173Y-48774568D01*
X118836035Y-48799068D01*
X118834088Y-48809487D01*
X118834981Y-48818414D01*
X118834981Y-48818418D01*
X118838524Y-48853828D01*
X118839143Y-48865017D01*
X118839622Y-48909599D01*
X118842233Y-48918183D01*
X118842233Y-48918186D01*
X118842710Y-48919755D01*
X118847534Y-48943864D01*
X118848590Y-48954421D01*
X118865298Y-48995743D01*
X118869030Y-49006303D01*
X118882000Y-49048955D01*
X118887814Y-49057836D01*
X118899212Y-49079624D01*
X118903188Y-49089459D01*
X118908755Y-49096504D01*
X118930814Y-49124421D01*
X118937362Y-49133511D01*
X118961787Y-49170817D01*
X118968615Y-49176646D01*
X118968619Y-49176650D01*
X118969859Y-49177708D01*
X118986914Y-49195421D01*
X118993491Y-49203745D01*
X119000808Y-49208942D01*
X119029829Y-49229556D01*
X119038669Y-49236447D01*
X119072570Y-49265386D01*
X119080755Y-49269062D01*
X119128038Y-49290297D01*
X119132708Y-49292510D01*
X119214970Y-49333589D01*
X120067301Y-49759212D01*
X120077326Y-49764803D01*
X120082204Y-49767823D01*
X120082213Y-49767828D01*
X120086346Y-49770386D01*
X120090828Y-49772280D01*
X120104336Y-49777988D01*
X120111565Y-49781316D01*
X120126252Y-49788650D01*
X120137079Y-49792249D01*
X120146366Y-49795748D01*
X121239637Y-50257719D01*
X121250627Y-50263003D01*
X121403469Y-50345835D01*
X122400967Y-50886422D01*
X122409202Y-50891298D01*
X123545754Y-51623976D01*
X123553173Y-51629145D01*
X124591122Y-52409046D01*
X124599216Y-52415672D01*
X125453111Y-53176043D01*
X125463918Y-53186914D01*
X126039596Y-53841250D01*
X126056636Y-53866061D01*
X126253651Y-54242573D01*
X126267012Y-54316829D01*
X126198627Y-54856527D01*
X126191277Y-54885789D01*
X125769183Y-55986862D01*
X125762957Y-56000587D01*
X125128572Y-57202198D01*
X125119247Y-57217208D01*
X124424346Y-58178114D01*
X124419555Y-58184322D01*
X123892590Y-58824949D01*
X123890094Y-58827983D01*
X123877897Y-58840847D01*
X123856980Y-58860008D01*
X123819402Y-58922035D01*
X123781793Y-58983916D01*
X123781698Y-58984272D01*
X123781507Y-58984587D01*
X123762839Y-59054703D01*
X123747687Y-59111292D01*
X123744119Y-59124617D01*
X123744127Y-59124984D01*
X123744032Y-59125342D01*
X123744245Y-59134122D01*
X123744245Y-59134125D01*
X123744460Y-59142959D01*
X123745782Y-59197377D01*
X123747448Y-59270236D01*
X123747560Y-59270589D01*
X123747569Y-59270956D01*
X123750263Y-59279401D01*
X123750263Y-59279403D01*
X123769418Y-59339454D01*
X123769472Y-59339624D01*
X123785482Y-59390061D01*
X123791515Y-59409069D01*
X123791722Y-59409377D01*
X123791833Y-59409725D01*
X123796791Y-59417078D01*
X123796792Y-59417080D01*
X123826072Y-59460503D01*
X123832284Y-59469716D01*
X123872776Y-59529952D01*
X123897590Y-59550619D01*
X123909334Y-59561754D01*
X124123369Y-59792557D01*
X124206956Y-59882693D01*
X124210808Y-59887364D01*
X124213359Y-59892160D01*
X124238295Y-59917702D01*
X124259634Y-59939559D01*
X124261835Y-59941871D01*
X124280086Y-59961552D01*
X124283562Y-59964367D01*
X124284836Y-59965559D01*
X124287788Y-59968448D01*
X124288144Y-59968760D01*
X124291543Y-59972242D01*
X124295443Y-59975164D01*
X124295446Y-59975166D01*
X124312752Y-59988130D01*
X124316518Y-59991064D01*
X124357630Y-60024366D01*
X124357637Y-60024370D01*
X124364608Y-60030017D01*
X124371835Y-60033042D01*
X124380165Y-60038628D01*
X124559258Y-60172785D01*
X125254967Y-60693934D01*
X125264772Y-60702085D01*
X125266578Y-60703748D01*
X125266586Y-60703755D01*
X125270165Y-60707050D01*
X125274213Y-60709759D01*
X125289072Y-60719703D01*
X125294520Y-60723562D01*
X125310262Y-60735354D01*
X125314194Y-60737506D01*
X125314198Y-60737508D01*
X125317375Y-60739246D01*
X125326972Y-60745067D01*
X126568024Y-61575620D01*
X126574080Y-61580199D01*
X126574095Y-61580179D01*
X126578034Y-61583039D01*
X126581744Y-61586197D01*
X126585897Y-61588748D01*
X126585902Y-61588751D01*
X126604959Y-61600454D01*
X126609069Y-61603089D01*
X126629134Y-61616517D01*
X126633161Y-61618450D01*
X126635265Y-61619651D01*
X126643760Y-61624282D01*
X126909057Y-61787204D01*
X127974982Y-62441802D01*
X127985658Y-62449141D01*
X127991063Y-62453281D01*
X128011508Y-62464428D01*
X128017095Y-62467665D01*
X128030449Y-62475866D01*
X128030453Y-62475868D01*
X128034273Y-62478214D01*
X128038386Y-62479994D01*
X128038393Y-62479998D01*
X128041251Y-62481235D01*
X128051518Y-62486243D01*
X129225661Y-63126422D01*
X129230078Y-63128997D01*
X129233374Y-63131418D01*
X129237689Y-63133659D01*
X129237695Y-63133663D01*
X129262871Y-63146739D01*
X129265112Y-63147932D01*
X129291554Y-63162349D01*
X129295371Y-63163772D01*
X129300144Y-63166099D01*
X130177017Y-63621553D01*
X130228250Y-63670702D01*
X130244777Y-63739749D01*
X130226263Y-63799380D01*
X130111135Y-63986560D01*
X130091681Y-64010853D01*
X129364059Y-64718846D01*
X129025645Y-65048131D01*
X129024488Y-65049243D01*
X127336161Y-66650683D01*
X127331579Y-66654820D01*
X127287548Y-66692650D01*
X127265758Y-66726163D01*
X127263950Y-66728943D01*
X127257122Y-66738446D01*
X127230248Y-66772398D01*
X127225776Y-66783432D01*
X127214635Y-66804789D01*
X127208149Y-66814764D01*
X127205566Y-66823358D01*
X127205565Y-66823359D01*
X127195685Y-66856225D01*
X127191795Y-66867274D01*
X127175536Y-66907389D01*
X127174635Y-66916318D01*
X127174341Y-66919230D01*
X127169643Y-66942853D01*
X127168801Y-66945653D01*
X127168800Y-66945659D01*
X127166216Y-66954255D01*
X127166148Y-66963235D01*
X127166148Y-66963236D01*
X127165889Y-66997543D01*
X127165256Y-67009241D01*
X127160910Y-67052311D01*
X127162552Y-67061138D01*
X127163087Y-67064013D01*
X127165208Y-67088006D01*
X127165118Y-67099909D01*
X127167573Y-67108544D01*
X127167573Y-67108547D01*
X127176954Y-67141549D01*
X127179630Y-67152957D01*
X127187546Y-67195512D01*
X127191597Y-67203518D01*
X127191598Y-67203522D01*
X127192922Y-67206138D01*
X127201690Y-67228567D01*
X127202490Y-67231380D01*
X127204945Y-67240016D01*
X127209723Y-67247613D01*
X127209724Y-67247615D01*
X127227990Y-67276657D01*
X127233757Y-67286849D01*
X127253304Y-67325482D01*
X127261445Y-67334170D01*
X127276158Y-67353240D01*
X127282494Y-67363313D01*
X127314895Y-67392011D01*
X127323293Y-67400177D01*
X127346759Y-67425221D01*
X127346762Y-67425223D01*
X127352897Y-67431771D01*
X127360618Y-67436330D01*
X127360626Y-67436337D01*
X127406475Y-67463412D01*
X127410441Y-67465854D01*
X128110539Y-67914993D01*
X128122446Y-67923653D01*
X128207899Y-67993796D01*
X128952383Y-68604899D01*
X128967146Y-68619185D01*
X129267513Y-68961529D01*
X129713342Y-69469664D01*
X129725398Y-69485858D01*
X130197880Y-70239862D01*
X130214360Y-70280584D01*
X130271764Y-70550795D01*
X130266355Y-70621585D01*
X130255258Y-70643925D01*
X129949788Y-71130980D01*
X129947523Y-71134463D01*
X129746230Y-71433068D01*
X129741489Y-71439324D01*
X129736545Y-71443702D01*
X129702409Y-71497963D01*
X129700283Y-71501227D01*
X129686154Y-71522186D01*
X129684198Y-71526226D01*
X129681966Y-71530106D01*
X129681850Y-71530039D01*
X129679052Y-71535089D01*
X129658982Y-71566991D01*
X129654186Y-71583858D01*
X129646399Y-71604299D01*
X129638754Y-71620088D01*
X129637268Y-71628938D01*
X129632511Y-71657256D01*
X129629447Y-71670845D01*
X129621596Y-71698453D01*
X129621595Y-71698461D01*
X129619140Y-71707094D01*
X129619207Y-71716072D01*
X129619270Y-71724636D01*
X129617533Y-71746438D01*
X129614628Y-71763733D01*
X129615686Y-71772647D01*
X129619067Y-71801143D01*
X129619942Y-71815050D01*
X129620221Y-71852748D01*
X129622802Y-71861337D01*
X129622803Y-71861344D01*
X129625269Y-71869550D01*
X129629721Y-71890962D01*
X129630729Y-71899458D01*
X129630731Y-71899465D01*
X129631788Y-71908376D01*
X129635305Y-71916635D01*
X129646549Y-71943040D01*
X129651291Y-71956143D01*
X129662139Y-71992243D01*
X129667031Y-71999768D01*
X129667032Y-71999771D01*
X129671697Y-72006947D01*
X129681980Y-72026248D01*
X129688854Y-72042390D01*
X129712766Y-72071537D01*
X129720976Y-72082756D01*
X129741524Y-72114366D01*
X129754828Y-72125799D01*
X129770115Y-72141440D01*
X129781240Y-72155000D01*
X129788650Y-72160061D01*
X129788652Y-72160063D01*
X129812354Y-72176252D01*
X129820862Y-72182780D01*
X129822712Y-72184137D01*
X129826406Y-72187311D01*
X129847505Y-72200406D01*
X129852083Y-72203389D01*
X129901518Y-72237154D01*
X129910037Y-72239928D01*
X129920818Y-72245905D01*
X130147375Y-72386511D01*
X130227720Y-72436375D01*
X130243023Y-72447549D01*
X130255410Y-72458110D01*
X130255413Y-72458112D01*
X130262242Y-72463934D01*
X130296722Y-72479393D01*
X130298171Y-72480098D01*
X130299627Y-72481002D01*
X130303664Y-72482772D01*
X130330153Y-72494387D01*
X130331079Y-72494797D01*
X130364366Y-72509721D01*
X130366022Y-72510174D01*
X130367535Y-72510776D01*
X130391022Y-72521074D01*
X130391024Y-72521075D01*
X130399245Y-72524679D01*
X130428181Y-72528424D01*
X130445247Y-72531846D01*
X131888794Y-72926724D01*
X131892387Y-72927765D01*
X133225303Y-73336004D01*
X133241366Y-73342153D01*
X133837634Y-73618478D01*
X133891029Y-73665268D01*
X133910652Y-73733499D01*
X133905041Y-73769987D01*
X133724008Y-74356012D01*
X133721769Y-74362606D01*
X133283407Y-75544129D01*
X133277536Y-75557515D01*
X132752683Y-76587147D01*
X132742640Y-76603600D01*
X132217658Y-77331789D01*
X132151600Y-77423417D01*
X132134005Y-77443093D01*
X132005369Y-77559669D01*
X131398849Y-78109327D01*
X131392595Y-78114635D01*
X131066637Y-78373484D01*
X130610505Y-78735706D01*
X130588505Y-78749728D01*
X130014288Y-79036836D01*
X130007586Y-79039944D01*
X129617670Y-79206997D01*
X129156054Y-79404768D01*
X129139319Y-79410583D01*
X128539638Y-79572714D01*
X128521902Y-79576167D01*
X128503511Y-79578394D01*
X128503509Y-79578394D01*
X128494603Y-79579473D01*
X128460544Y-79594074D01*
X128460341Y-79594153D01*
X128460083Y-79594223D01*
X128427828Y-79608100D01*
X128360728Y-79636866D01*
X128360470Y-79637079D01*
X128360165Y-79637210D01*
X128353267Y-79642913D01*
X128353261Y-79642916D01*
X128304555Y-79683179D01*
X128304432Y-79683282D01*
X128248344Y-79729527D01*
X128248156Y-79729803D01*
X128247900Y-79730015D01*
X128207267Y-79789981D01*
X128166483Y-79850005D01*
X128166381Y-79850321D01*
X128166194Y-79850597D01*
X128163470Y-79859072D01*
X128143956Y-79919772D01*
X128143907Y-79919925D01*
X128124470Y-79980122D01*
X128124469Y-79980126D01*
X128121728Y-79988616D01*
X128121719Y-79988946D01*
X128121616Y-79989266D01*
X128121378Y-79998216D01*
X128121378Y-79998218D01*
X128119687Y-80061929D01*
X128119682Y-80062092D01*
X128119245Y-80077808D01*
X128117674Y-80134217D01*
X128117759Y-80134540D01*
X128117750Y-80134873D01*
X128120035Y-80143534D01*
X128120035Y-80143535D01*
X128121406Y-80148730D01*
X128136307Y-80205216D01*
X128154649Y-80275103D01*
X128154819Y-80275386D01*
X128154905Y-80275712D01*
X128192516Y-80338113D01*
X128229679Y-80399950D01*
X128229925Y-80400177D01*
X128230096Y-80400461D01*
X128283421Y-80449532D01*
X128311937Y-80475841D01*
X128312160Y-80475990D01*
X128312333Y-80476138D01*
X128337278Y-80499093D01*
X128365443Y-80513026D01*
X128379743Y-80521310D01*
X128948923Y-80902987D01*
X128949931Y-80903670D01*
X129003487Y-80940339D01*
X129003489Y-80940340D01*
X129010891Y-80945408D01*
X129019417Y-80948195D01*
X129019420Y-80948196D01*
X129040077Y-80954947D01*
X129055555Y-80961168D01*
X129083233Y-80974485D01*
X129092092Y-80975951D01*
X129092093Y-80975951D01*
X129106465Y-80978329D01*
X129116835Y-80980044D01*
X129116927Y-80980063D01*
X129117272Y-80980176D01*
X129139891Y-80983859D01*
X129226937Y-80998261D01*
X129227575Y-80998184D01*
X129228229Y-80998244D01*
X129966923Y-81118528D01*
X129986813Y-81123455D01*
X130006993Y-81130239D01*
X130029208Y-81131124D01*
X130044930Y-81131750D01*
X130050252Y-81132096D01*
X130054314Y-81132758D01*
X130058796Y-81132844D01*
X130058797Y-81132844D01*
X130061936Y-81132904D01*
X130083778Y-81133323D01*
X130086309Y-81133398D01*
X130118823Y-81134693D01*
X130122932Y-81134220D01*
X130128069Y-81134173D01*
X130154090Y-81134672D01*
X130154091Y-81134672D01*
X130163066Y-81134844D01*
X130187402Y-81128231D01*
X130206014Y-81124652D01*
X130748314Y-81062198D01*
X130875993Y-81047494D01*
X130885915Y-81046874D01*
X130893640Y-81047901D01*
X130902517Y-81046538D01*
X130902518Y-81046538D01*
X130918624Y-81044065D01*
X130954838Y-81038504D01*
X130959523Y-81037875D01*
X130982893Y-81035183D01*
X130987236Y-81034042D01*
X130991630Y-81033216D01*
X130991631Y-81033222D01*
X130998439Y-81031809D01*
X131009357Y-81030133D01*
X131028741Y-81027157D01*
X131028743Y-81027157D01*
X131037610Y-81025795D01*
X131045741Y-81021998D01*
X131045742Y-81021998D01*
X131051728Y-81019203D01*
X131073026Y-81011504D01*
X131079414Y-81009826D01*
X131079416Y-81009825D01*
X131088096Y-81007545D01*
X131095783Y-81002922D01*
X131095789Y-81002920D01*
X131122064Y-80987119D01*
X131133671Y-80980941D01*
X131139018Y-80978444D01*
X131143054Y-80975734D01*
X131143063Y-80975729D01*
X131158087Y-80965641D01*
X131163391Y-80962268D01*
X131205230Y-80937109D01*
X131205232Y-80937107D01*
X131212922Y-80932483D01*
X131219006Y-80925886D01*
X131222513Y-80923028D01*
X131231858Y-80916106D01*
X131758091Y-80562764D01*
X131999826Y-80400449D01*
X132010641Y-80393950D01*
X132017399Y-80390336D01*
X132035328Y-80376832D01*
X132040846Y-80372906D01*
X132056898Y-80362128D01*
X132063179Y-80356467D01*
X132071732Y-80349415D01*
X132086738Y-80338113D01*
X132879055Y-79741373D01*
X132892767Y-79732382D01*
X133151946Y-79585638D01*
X133497919Y-79389753D01*
X133552331Y-79373632D01*
X134359403Y-79324423D01*
X134371201Y-79324257D01*
X135048218Y-79346457D01*
X135477929Y-79360549D01*
X135489626Y-79361480D01*
X136748769Y-79521035D01*
X136758981Y-79522758D01*
X137006488Y-79575078D01*
X137825428Y-79748194D01*
X137846321Y-79754545D01*
X138248590Y-79916077D01*
X138304351Y-79960022D01*
X138327501Y-80027138D01*
X138327146Y-80044125D01*
X138265170Y-80743447D01*
X138264776Y-80747244D01*
X138157327Y-81648298D01*
X138156100Y-81656355D01*
X138103494Y-81940000D01*
X138034546Y-82311765D01*
X138029022Y-82341548D01*
X138028523Y-82344093D01*
X137946390Y-82740833D01*
X137934602Y-82797772D01*
X137933269Y-82803525D01*
X137918659Y-82860448D01*
X137918958Y-82869419D01*
X137920076Y-82903029D01*
X137919905Y-82915015D01*
X137917268Y-82957559D01*
X137920047Y-82969838D01*
X137923085Y-82993458D01*
X137923503Y-83006025D01*
X137926306Y-83014548D01*
X137926308Y-83014558D01*
X137936818Y-83046512D01*
X137940017Y-83058063D01*
X137949424Y-83099623D01*
X137953782Y-83107468D01*
X137953784Y-83107473D01*
X137955533Y-83110621D01*
X137965082Y-83132447D01*
X137969010Y-83144391D01*
X137974095Y-83151788D01*
X137993154Y-83179514D01*
X137999455Y-83189683D01*
X138020159Y-83226952D01*
X138029115Y-83235799D01*
X138044395Y-83254054D01*
X138051523Y-83264423D01*
X138084559Y-83291361D01*
X138093463Y-83299357D01*
X138123788Y-83329310D01*
X138131686Y-83333571D01*
X138131689Y-83333573D01*
X138179154Y-83359179D01*
X138182985Y-83361333D01*
X138511582Y-83553692D01*
X138518490Y-83558042D01*
X138546893Y-83577241D01*
X138562297Y-83587654D01*
X138608247Y-83602370D01*
X138617412Y-83605702D01*
X138662092Y-83623930D01*
X138671019Y-83624852D01*
X138671021Y-83624852D01*
X138699490Y-83627791D01*
X138718719Y-83629776D01*
X138725276Y-83630628D01*
X139411275Y-83738152D01*
X139939693Y-83820977D01*
X139944100Y-83821748D01*
X141402887Y-84103789D01*
X141417475Y-84107526D01*
X142470187Y-84445509D01*
X142493525Y-84455708D01*
X142748192Y-84599257D01*
X143104969Y-84800363D01*
X143142363Y-84832521D01*
X143262578Y-84986288D01*
X143307696Y-85043998D01*
X143314530Y-85052740D01*
X143340728Y-85118726D01*
X143341228Y-85133376D01*
X143340607Y-85159135D01*
X143340084Y-85180809D01*
X143318445Y-85248427D01*
X143297726Y-85272037D01*
X142908895Y-85616889D01*
X142895770Y-85627066D01*
X141737725Y-86408520D01*
X141728448Y-86414213D01*
X141142947Y-86739567D01*
X140669312Y-87002758D01*
X140655693Y-87009290D01*
X139824130Y-87348414D01*
X139817748Y-87350816D01*
X138953049Y-87649825D01*
X138946247Y-87651964D01*
X138028382Y-87912208D01*
X138022007Y-87913836D01*
X137905608Y-87940358D01*
X137009641Y-88144506D01*
X137004285Y-88145605D01*
X135857329Y-88355065D01*
X135853221Y-88355745D01*
X134533552Y-88551934D01*
X134530631Y-88552334D01*
X132998271Y-88743614D01*
X132997415Y-88743718D01*
X131708199Y-88895696D01*
X131707603Y-88895744D01*
X131706915Y-88895721D01*
X131704982Y-88895955D01*
X131704972Y-88895956D01*
X131668353Y-88900393D01*
X131667950Y-88900441D01*
X131656329Y-88901811D01*
X131632961Y-88904566D01*
X131632299Y-88904742D01*
X131631713Y-88904833D01*
X130378627Y-89056666D01*
X130377973Y-89056721D01*
X130377242Y-89056699D01*
X130338846Y-89061487D01*
X130303439Y-89065777D01*
X130302726Y-89065969D01*
X130302091Y-89066070D01*
X129205033Y-89202868D01*
X129203933Y-89202965D01*
X129202728Y-89202936D01*
X129199471Y-89203361D01*
X129199460Y-89203362D01*
X129165162Y-89207838D01*
X129164548Y-89207917D01*
X129148788Y-89209882D01*
X129133306Y-89211812D01*
X129133297Y-89211814D01*
X129130093Y-89212213D01*
X129128934Y-89212529D01*
X129127840Y-89212708D01*
X128943127Y-89236812D01*
X128341261Y-89315354D01*
X128341166Y-89315362D01*
X128341024Y-89315359D01*
X128340613Y-89315413D01*
X128340612Y-89315413D01*
X128301510Y-89320541D01*
X128301429Y-89320552D01*
X128265862Y-89325193D01*
X128265736Y-89325229D01*
X128265620Y-89325248D01*
X127740634Y-89394097D01*
X126817637Y-89515143D01*
X126816533Y-89515282D01*
X125883133Y-89627903D01*
X125360309Y-89690985D01*
X125358979Y-89691138D01*
X123929927Y-89848174D01*
X123928550Y-89848318D01*
X122528245Y-89986641D01*
X122526813Y-89986774D01*
X121157312Y-90106285D01*
X121155815Y-90106407D01*
X119819082Y-90207016D01*
X119817508Y-90207124D01*
X119489495Y-90227687D01*
X118515555Y-90288743D01*
X118514036Y-90288828D01*
X117249648Y-90351337D01*
X117248790Y-90351379D01*
X117247025Y-90351454D01*
X116020638Y-90394848D01*
X116018809Y-90394899D01*
X115555538Y-90404345D01*
X114833231Y-90419071D01*
X114831201Y-90419096D01*
X113688483Y-90423977D01*
X113686285Y-90423967D01*
X112588518Y-90409506D01*
X112586122Y-90409452D01*
X111535343Y-90375607D01*
X111532711Y-90375494D01*
X110531234Y-90322258D01*
X110528320Y-90322070D01*
X109572160Y-90248990D01*
X109571248Y-90248917D01*
X109071518Y-90207072D01*
X108499395Y-90159165D01*
X108498148Y-90159016D01*
X108496816Y-90158702D01*
X108493168Y-90158420D01*
X108493166Y-90158420D01*
X108459323Y-90155806D01*
X108458517Y-90155741D01*
X108436516Y-90153900D01*
X108424216Y-90152870D01*
X108422864Y-90152950D01*
X108421577Y-90152892D01*
X107173992Y-90056557D01*
X107172854Y-90056428D01*
X107171644Y-90056150D01*
X107168292Y-90055911D01*
X107168283Y-90055910D01*
X107148062Y-90054469D01*
X107133890Y-90053458D01*
X107133353Y-90053418D01*
X107115833Y-90052066D01*
X107102047Y-90051001D01*
X107102040Y-90051001D01*
X107098715Y-90050744D01*
X107097480Y-90050825D01*
X107096323Y-90050780D01*
X105889180Y-89964723D01*
X105888292Y-89964657D01*
X104307712Y-89840736D01*
X104303738Y-89840361D01*
X103341563Y-89734169D01*
X103333784Y-89733064D01*
X102810412Y-89641992D01*
X102802156Y-89640268D01*
X102760186Y-89630031D01*
X102760184Y-89630031D01*
X102751460Y-89627903D01*
X102742490Y-89628309D01*
X102742488Y-89628309D01*
X102702577Y-89630116D01*
X102693094Y-89630188D01*
X102666190Y-89629380D01*
X102644184Y-89628718D01*
X102635496Y-89630978D01*
X102627886Y-89631835D01*
X102622459Y-89632655D01*
X102614921Y-89634085D01*
X102605951Y-89634491D01*
X102597457Y-89637398D01*
X102559658Y-89650334D01*
X102550575Y-89653065D01*
X102511904Y-89663122D01*
X102511901Y-89663123D01*
X102503216Y-89665382D01*
X102495513Y-89669988D01*
X102488431Y-89672955D01*
X102483479Y-89675252D01*
X102476632Y-89678747D01*
X102468140Y-89681653D01*
X102460807Y-89686825D01*
X102460804Y-89686826D01*
X102428147Y-89709857D01*
X102420196Y-89715027D01*
X102378205Y-89740137D01*
X102372103Y-89746722D01*
X102366131Y-89751563D01*
X102362025Y-89755155D01*
X102356437Y-89760429D01*
X102349105Y-89765599D01*
X102318633Y-89803896D01*
X102312463Y-89811078D01*
X102285298Y-89840391D01*
X102285296Y-89840393D01*
X102279199Y-89846973D01*
X102275193Y-89855001D01*
X102270837Y-89861298D01*
X102267897Y-89865911D01*
X102264008Y-89872551D01*
X102258416Y-89879579D01*
X102255023Y-89887891D01*
X102255022Y-89887892D01*
X102239925Y-89924872D01*
X102236013Y-89933510D01*
X102218166Y-89969272D01*
X102218164Y-89969277D01*
X102214159Y-89977303D01*
X102212567Y-89986134D01*
X102210158Y-89993387D01*
X102208616Y-89998690D01*
X102206756Y-90006118D01*
X102203362Y-90014432D01*
X102202438Y-90023362D01*
X102198325Y-90063111D01*
X102196996Y-90072490D01*
X102188312Y-90120649D01*
X102189263Y-90129577D01*
X102194263Y-90176534D01*
X102194805Y-90183409D01*
X102254934Y-91353330D01*
X102284289Y-91924471D01*
X102291341Y-92061689D01*
X102291490Y-92067852D01*
X102291119Y-92072463D01*
X102291480Y-92077311D01*
X102293520Y-92104729D01*
X102293701Y-92107612D01*
X102295201Y-92136798D01*
X102296061Y-92141185D01*
X102296122Y-92141679D01*
X102296719Y-92147720D01*
X102378966Y-93252983D01*
X102379278Y-93259377D01*
X102379317Y-93261049D01*
X102379056Y-93265899D01*
X102382196Y-93296972D01*
X102382486Y-93300283D01*
X102384574Y-93328345D01*
X102385538Y-93332726D01*
X102386000Y-93335882D01*
X102386690Y-93341462D01*
X102486266Y-94327053D01*
X102524349Y-94703993D01*
X102524668Y-94708459D01*
X102524535Y-94712201D01*
X102525113Y-94717033D01*
X102528552Y-94745799D01*
X102528805Y-94748093D01*
X102531888Y-94778610D01*
X102532785Y-94782230D01*
X102533453Y-94786794D01*
X102616678Y-95482871D01*
X102700842Y-96186814D01*
X102701309Y-96191962D01*
X102701247Y-96196084D01*
X102701922Y-96200897D01*
X102701922Y-96200901D01*
X102705852Y-96228936D01*
X102706181Y-96231467D01*
X102709753Y-96261341D01*
X102710815Y-96265315D01*
X102711691Y-96270584D01*
X102774615Y-96719438D01*
X102882386Y-97488196D01*
X102882992Y-97495634D01*
X102883031Y-97495630D01*
X102883519Y-97500466D01*
X102883632Y-97505343D01*
X102884495Y-97510147D01*
X102888476Y-97532312D01*
X102889241Y-97537094D01*
X102892618Y-97561186D01*
X102893865Y-97565496D01*
X102894478Y-97568367D01*
X102896533Y-97577163D01*
X102943470Y-97838466D01*
X103014769Y-98235389D01*
X103047275Y-98416355D01*
X103048118Y-98421706D01*
X103167239Y-99300414D01*
X103168097Y-99308889D01*
X103253968Y-100586330D01*
X103254208Y-100591438D01*
X103289314Y-101914028D01*
X103289295Y-101921352D01*
X103257636Y-102922748D01*
X103257130Y-102930723D01*
X103164134Y-103906364D01*
X103143606Y-103964204D01*
X103052862Y-104100593D01*
X102723895Y-104595029D01*
X102719849Y-104600756D01*
X102499082Y-104895411D01*
X102231725Y-105252249D01*
X102217218Y-105268476D01*
X101729176Y-105727550D01*
X101705957Y-105744827D01*
X101121046Y-106083317D01*
X101096924Y-106094078D01*
X100297611Y-106354181D01*
X100280206Y-106358503D01*
X99169525Y-106551617D01*
X99159430Y-106552954D01*
X97667704Y-106689537D01*
X97662609Y-106689900D01*
X97080469Y-106719478D01*
X95724409Y-106788378D01*
X95723048Y-106788439D01*
X95280991Y-106805953D01*
X93737931Y-106867088D01*
X93672201Y-106851579D01*
X93468060Y-106739253D01*
X93456177Y-106731825D01*
X93396224Y-106689537D01*
X92632716Y-106151001D01*
X92603742Y-106122558D01*
X92157877Y-105514681D01*
X92138116Y-105474033D01*
X91903463Y-104633312D01*
X91899934Y-104616124D01*
X91842624Y-104187150D01*
X91847485Y-104132138D01*
X92384134Y-102451505D01*
X92388614Y-102439588D01*
X92389615Y-102437286D01*
X92389616Y-102437282D01*
X92391556Y-102432822D01*
X92397294Y-102410879D01*
X92399166Y-102404426D01*
X92403769Y-102390012D01*
X92405131Y-102385747D01*
X92405874Y-102381334D01*
X92405876Y-102381327D01*
X92406490Y-102377680D01*
X92408839Y-102366730D01*
X92495347Y-102035910D01*
X92713158Y-101202960D01*
X92713879Y-101200320D01*
X92721879Y-101172233D01*
X92721879Y-101172231D01*
X92723213Y-101167549D01*
X92723809Y-101162723D01*
X92723930Y-101162129D01*
X92724068Y-101161235D01*
X92724613Y-101159154D01*
X92728829Y-101122171D01*
X92728963Y-101121041D01*
X92760842Y-100863218D01*
X92857074Y-100084924D01*
X92857419Y-100083129D01*
X92858164Y-100081363D01*
X92866707Y-100007063D01*
X92866834Y-100005995D01*
X92869908Y-99981128D01*
X92870408Y-99977087D01*
X92870377Y-99975435D01*
X92870392Y-99975015D01*
X92870948Y-99970177D01*
X92869705Y-99939128D01*
X92869628Y-99936535D01*
X92869498Y-99929752D01*
X92868318Y-99868334D01*
X92866988Y-99864093D01*
X92866515Y-99859411D01*
X92863451Y-99782819D01*
X92829585Y-98936443D01*
X92829676Y-98932260D01*
X92830577Y-98928337D01*
X92826525Y-98859417D01*
X92826409Y-98857061D01*
X92825453Y-98833166D01*
X92825453Y-98833162D01*
X92825273Y-98828675D01*
X92824619Y-98825123D01*
X92824332Y-98821752D01*
X92824294Y-98821474D01*
X92824008Y-98816612D01*
X92822978Y-98811855D01*
X92822977Y-98811847D01*
X92817983Y-98788780D01*
X92817216Y-98784955D01*
X92807186Y-98730528D01*
X92805560Y-98721703D01*
X92802643Y-98715914D01*
X92800608Y-98708529D01*
X92779237Y-98609811D01*
X92603355Y-97797397D01*
X92603247Y-97796650D01*
X92603298Y-97795900D01*
X92585085Y-97712999D01*
X92585004Y-97712626D01*
X92580574Y-97692165D01*
X92580570Y-97692153D01*
X92580238Y-97690618D01*
X92580064Y-97690151D01*
X92579282Y-97686589D01*
X92567630Y-97656613D01*
X92566956Y-97654838D01*
X92552744Y-97616551D01*
X92542384Y-97588644D01*
X92540403Y-97585982D01*
X92538997Y-97582951D01*
X92151585Y-96586299D01*
X92150287Y-96582808D01*
X92141523Y-96558124D01*
X92139894Y-96553536D01*
X92137579Y-96549254D01*
X92137414Y-96548883D01*
X92135808Y-96545712D01*
X92134466Y-96542260D01*
X92118372Y-96513688D01*
X92117318Y-96511779D01*
X91946640Y-96196084D01*
X91520802Y-95408430D01*
X91516801Y-95400352D01*
X91509860Y-95384967D01*
X91502553Y-95373772D01*
X91497226Y-95364824D01*
X91494469Y-95359725D01*
X91492337Y-95355781D01*
X91481783Y-95341543D01*
X91477497Y-95335385D01*
X90808122Y-94309876D01*
X90730180Y-94190467D01*
X90725198Y-94182151D01*
X90706004Y-94147127D01*
X90701689Y-94139253D01*
X90664828Y-94102422D01*
X90659210Y-94096431D01*
X90630960Y-94064255D01*
X90624817Y-94057259D01*
X90617235Y-94052445D01*
X90611281Y-94047348D01*
X90605001Y-94042645D01*
X90598651Y-94036300D01*
X90590194Y-94031674D01*
X90552947Y-94011302D01*
X90545865Y-94007123D01*
X90509435Y-93983989D01*
X90509434Y-93983988D01*
X90501857Y-93979177D01*
X90493232Y-93976685D01*
X90486091Y-93973466D01*
X90478736Y-93970712D01*
X90470860Y-93966404D01*
X90419957Y-93955234D01*
X90412002Y-93953214D01*
X90361924Y-93938744D01*
X90309014Y-93938913D01*
X90300862Y-93938675D01*
X90008868Y-93920679D01*
X89989380Y-93917938D01*
X89966557Y-93912884D01*
X89928569Y-93915415D01*
X89925405Y-93915536D01*
X89922535Y-93915359D01*
X89918071Y-93915720D01*
X89918067Y-93915720D01*
X89891177Y-93917894D01*
X89889403Y-93918025D01*
X89859979Y-93919986D01*
X89821222Y-93922569D01*
X89817779Y-93923830D01*
X89814117Y-93924126D01*
X89806781Y-93926931D01*
X89806780Y-93926931D01*
X89750260Y-93948541D01*
X89748588Y-93949167D01*
X89691802Y-93969961D01*
X89691800Y-93969962D01*
X89684446Y-93972655D01*
X89681493Y-93974833D01*
X89678064Y-93976144D01*
X89671822Y-93980886D01*
X89623637Y-94017491D01*
X89622209Y-94018560D01*
X89567226Y-94059115D01*
X89565003Y-94062035D01*
X89562080Y-94064255D01*
X89557417Y-94070562D01*
X89557415Y-94070564D01*
X89521424Y-94119245D01*
X89520354Y-94120670D01*
X89478983Y-94175001D01*
X89477670Y-94178424D01*
X89475486Y-94181378D01*
X89472779Y-94188746D01*
X89451922Y-94245505D01*
X89451297Y-94247170D01*
X89438897Y-94279494D01*
X89438289Y-94282320D01*
X89437308Y-94285273D01*
X89433128Y-94296649D01*
X89425247Y-94318098D01*
X89424640Y-94327052D01*
X89424640Y-94327053D01*
X89423402Y-94345325D01*
X89420873Y-94363297D01*
X89332510Y-94774151D01*
X89197995Y-95399593D01*
X89196375Y-95405369D01*
X89196582Y-95405424D01*
X89195339Y-95410133D01*
X89193737Y-95414728D01*
X89192861Y-95419515D01*
X89192860Y-95419520D01*
X89188379Y-95444018D01*
X89187624Y-95447814D01*
X89181997Y-95473978D01*
X89181685Y-95478451D01*
X89181056Y-95482889D01*
X89180931Y-95482871D01*
X89180178Y-95488843D01*
X89038698Y-96262220D01*
X89038160Y-96264987D01*
X88839171Y-97230189D01*
X88838656Y-97232570D01*
X88692908Y-97875884D01*
X88638311Y-98116866D01*
X88638281Y-98116979D01*
X88638224Y-98117122D01*
X88629522Y-98155656D01*
X88621509Y-98191025D01*
X88621497Y-98191170D01*
X88621472Y-98191301D01*
X88471130Y-98857061D01*
X88355229Y-99370305D01*
X88332326Y-99471724D01*
X88330748Y-99477965D01*
X88330356Y-99479364D01*
X88328686Y-99483933D01*
X88327739Y-99488703D01*
X88322581Y-99514684D01*
X88321898Y-99517902D01*
X88316671Y-99541047D01*
X88316670Y-99541055D01*
X88315684Y-99545420D01*
X88315327Y-99549885D01*
X88314887Y-99552778D01*
X88313908Y-99558368D01*
X88100868Y-100631405D01*
X88099168Y-100638795D01*
X87893873Y-101422547D01*
X87886541Y-101443088D01*
X87614608Y-102036807D01*
X87605761Y-102052907D01*
X87368853Y-102418141D01*
X87309214Y-102466849D01*
X86424526Y-102814387D01*
X86416817Y-102817129D01*
X85375682Y-103149904D01*
X85363943Y-103153041D01*
X84330808Y-103376371D01*
X84321805Y-103377978D01*
X83231275Y-103531980D01*
X83231170Y-103531995D01*
X82103443Y-103690287D01*
X82092336Y-103691347D01*
X80797576Y-103757274D01*
X80765195Y-103754731D01*
X79891116Y-103570594D01*
X79845077Y-103550693D01*
X79311499Y-103179057D01*
X79272593Y-103135437D01*
X78946997Y-102531240D01*
X78932959Y-102487647D01*
X78874466Y-102035910D01*
X78807398Y-101517945D01*
X78806836Y-101490776D01*
X78860445Y-100878960D01*
X78869716Y-100841353D01*
X78957499Y-100631405D01*
X79156376Y-100155755D01*
X79164942Y-100138936D01*
X79198600Y-100083542D01*
X79948475Y-98849382D01*
X79955843Y-98838566D01*
X79956819Y-98837282D01*
X79956819Y-98837281D01*
X79959771Y-98833398D01*
X79970980Y-98812654D01*
X79974142Y-98807141D01*
X79977216Y-98802082D01*
X79984767Y-98789654D01*
X79986524Y-98785542D01*
X79986528Y-98785534D01*
X79987635Y-98782942D01*
X79992650Y-98772551D01*
X80346808Y-98117122D01*
X80477165Y-97875875D01*
X80478759Y-97873015D01*
X80492467Y-97849155D01*
X80492473Y-97849143D01*
X80494896Y-97844925D01*
X80496644Y-97840379D01*
X80496833Y-97839981D01*
X80497761Y-97837760D01*
X80499195Y-97835105D01*
X80511126Y-97802736D01*
X80511728Y-97801139D01*
X80912321Y-96759025D01*
X80914448Y-96753841D01*
X80922837Y-96734616D01*
X80924789Y-96730144D01*
X80926030Y-96725422D01*
X80926184Y-96724979D01*
X80927971Y-96719438D01*
X80927889Y-96719413D01*
X80929196Y-96715125D01*
X80930804Y-96710942D01*
X80936821Y-96684623D01*
X80937789Y-96680684D01*
X81248223Y-95499591D01*
X81250563Y-95491737D01*
X81250856Y-95490861D01*
X81253516Y-95482889D01*
X81255053Y-95478286D01*
X81255053Y-95478285D01*
X81256593Y-95473672D01*
X81257406Y-95468871D01*
X81258473Y-95462569D01*
X81260843Y-95451574D01*
X81261754Y-95448108D01*
X81262916Y-95443689D01*
X81263429Y-95439242D01*
X81263430Y-95439235D01*
X81265196Y-95423911D01*
X81266134Y-95417309D01*
X81267637Y-95408433D01*
X81492435Y-94080482D01*
X81494647Y-94070101D01*
X81497834Y-94057732D01*
X81499533Y-94040390D01*
X81500695Y-94031691D01*
X81503083Y-94017584D01*
X81503428Y-94004012D01*
X81503988Y-93994931D01*
X81505061Y-93983989D01*
X81651475Y-92489963D01*
X81652224Y-92483857D01*
X81652699Y-92480640D01*
X81653779Y-92475893D01*
X81655898Y-92445354D01*
X81656196Y-92441792D01*
X81658876Y-92414444D01*
X81658676Y-92409960D01*
X81658795Y-92405477D01*
X81658980Y-92405482D01*
X81659046Y-92399952D01*
X81672753Y-92202341D01*
X81723085Y-91476724D01*
X81724315Y-91466633D01*
X81726768Y-91459116D01*
X81727046Y-91450146D01*
X81728678Y-91397429D01*
X81728920Y-91392611D01*
X81730222Y-91373829D01*
X81730533Y-91369350D01*
X81730206Y-91364875D01*
X81730198Y-91360678D01*
X81730043Y-91353330D01*
X81730997Y-91322500D01*
X81731275Y-91313528D01*
X81727416Y-91298637D01*
X81723722Y-91276215D01*
X81723254Y-91269818D01*
X81722600Y-91260867D01*
X81719458Y-91252454D01*
X81708661Y-91223546D01*
X81704725Y-91211067D01*
X81696990Y-91181217D01*
X81696989Y-91181215D01*
X81694738Y-91172528D01*
X81686851Y-91159311D01*
X81677019Y-91138840D01*
X81674771Y-91132822D01*
X81671632Y-91124418D01*
X81652315Y-91098579D01*
X81647787Y-91092523D01*
X81640503Y-91081644D01*
X81624697Y-91055157D01*
X81620097Y-91047448D01*
X81608815Y-91036974D01*
X81593634Y-91020086D01*
X81589794Y-91014950D01*
X81584417Y-91007758D01*
X81552565Y-90983828D01*
X81542531Y-90975438D01*
X81519928Y-90954454D01*
X81513350Y-90948347D01*
X81499585Y-90941462D01*
X81480277Y-90929516D01*
X81467964Y-90920265D01*
X81430689Y-90906242D01*
X81418692Y-90901002D01*
X81391107Y-90887204D01*
X81391104Y-90887203D01*
X81383079Y-90883189D01*
X81374249Y-90881588D01*
X81374242Y-90881586D01*
X81367930Y-90880442D01*
X81346041Y-90874394D01*
X81340040Y-90872136D01*
X81340034Y-90872135D01*
X81331635Y-90868975D01*
X81322683Y-90868299D01*
X81291923Y-90865976D01*
X81278946Y-90864315D01*
X81277745Y-90864097D01*
X81277741Y-90864097D01*
X81272954Y-90863229D01*
X81268088Y-90863108D01*
X81268087Y-90863108D01*
X81256156Y-90862812D01*
X81250174Y-90862663D01*
X81243818Y-90862344D01*
X81195346Y-90858684D01*
X81195345Y-90858684D01*
X81186391Y-90858008D01*
X81177605Y-90859873D01*
X81172617Y-90860207D01*
X81161073Y-90860450D01*
X80000324Y-90831615D01*
X78682879Y-90798887D01*
X78682131Y-90798866D01*
X77560192Y-90764328D01*
X77373164Y-90758571D01*
X77371403Y-90758504D01*
X76393732Y-90714593D01*
X76388719Y-90714266D01*
X76097649Y-90689441D01*
X75981851Y-90679564D01*
X75966491Y-90677294D01*
X75942018Y-90672119D01*
X75933232Y-90670261D01*
X75866566Y-90675344D01*
X75864233Y-90675500D01*
X75842819Y-90676725D01*
X75806475Y-90678804D01*
X75806473Y-90678804D01*
X75797515Y-90679317D01*
X75792889Y-90680962D01*
X75787996Y-90681335D01*
X75779600Y-90684501D01*
X75779595Y-90684502D01*
X75725497Y-90704902D01*
X75723267Y-90705720D01*
X75660276Y-90728119D01*
X75656299Y-90730995D01*
X75651706Y-90732727D01*
X75644534Y-90738123D01*
X75644535Y-90738123D01*
X75598318Y-90772899D01*
X75596406Y-90774310D01*
X75542250Y-90813476D01*
X75536747Y-90820565D01*
X75536742Y-90820569D01*
X75518997Y-90843425D01*
X75509818Y-90853982D01*
X75495900Y-90868299D01*
X75445384Y-90920265D01*
X75425708Y-90940505D01*
X75407300Y-90956123D01*
X75397472Y-90962958D01*
X75391842Y-90969939D01*
X75391840Y-90969941D01*
X75369938Y-90997101D01*
X75362201Y-91005834D01*
X75357544Y-91010624D01*
X75354908Y-91014246D01*
X75354901Y-91014255D01*
X75345655Y-91026962D01*
X75341853Y-91031925D01*
X75329335Y-91047448D01*
X75306035Y-91076340D01*
X75302586Y-91084633D01*
X75300615Y-91087948D01*
X75298831Y-91091318D01*
X75293548Y-91098579D01*
X75281261Y-91132822D01*
X75274268Y-91152309D01*
X75272021Y-91158113D01*
X75250095Y-91210827D01*
X75249113Y-91219742D01*
X75248165Y-91223425D01*
X75248164Y-91223433D01*
X75247387Y-91227222D01*
X75244353Y-91235677D01*
X75243814Y-91244640D01*
X75243814Y-91244641D01*
X75240929Y-91292639D01*
X75240399Y-91298872D01*
X75239991Y-91302583D01*
X75237844Y-91322073D01*
X75238062Y-91326938D01*
X75238062Y-91326940D01*
X75238110Y-91328014D01*
X75238009Y-91341214D01*
X75235613Y-91381072D01*
X75238417Y-91393353D01*
X75239151Y-91396567D01*
X75242186Y-91418972D01*
X75274991Y-92151154D01*
X75277035Y-92196782D01*
X75277161Y-92202332D01*
X75277346Y-92489963D01*
X75278247Y-93886780D01*
X75278198Y-93888206D01*
X75277977Y-93889704D01*
X75278009Y-93893732D01*
X75278270Y-93927073D01*
X75278274Y-93927980D01*
X75278292Y-93955234D01*
X75278296Y-93962172D01*
X75278511Y-93963667D01*
X75278568Y-93965092D01*
X75284958Y-94780222D01*
X75289311Y-95335450D01*
X75288772Y-95346695D01*
X75288720Y-95348693D01*
X75288217Y-95353530D01*
X75288465Y-95358391D01*
X75288465Y-95358392D01*
X75289538Y-95379427D01*
X75289698Y-95384858D01*
X75289877Y-95407684D01*
X75290548Y-95412121D01*
X75290607Y-95412513D01*
X75291860Y-95424933D01*
X75294815Y-95482871D01*
X75352440Y-96612464D01*
X75352498Y-96624047D01*
X75352074Y-96634348D01*
X75354320Y-96654080D01*
X75354961Y-96661884D01*
X75355813Y-96678575D01*
X75357943Y-96689461D01*
X75359477Y-96699392D01*
X75469157Y-97663046D01*
X75519356Y-98116866D01*
X75654578Y-99339325D01*
X75654998Y-99362482D01*
X75628834Y-99715860D01*
X75583525Y-100327818D01*
X75574552Y-100449004D01*
X75563639Y-100491758D01*
X75439432Y-100765512D01*
X75265490Y-101148884D01*
X75232469Y-101192727D01*
X75220461Y-101202960D01*
X74665371Y-101675959D01*
X74637705Y-101693871D01*
X74552985Y-101734107D01*
X74077449Y-101959953D01*
X73922419Y-102033581D01*
X73912430Y-102037808D01*
X72968914Y-102390012D01*
X72810779Y-102449042D01*
X72805188Y-102450981D01*
X71506469Y-102867425D01*
X71502079Y-102868745D01*
X70161338Y-103245211D01*
X70156570Y-103246449D01*
X68926183Y-103540419D01*
X68918863Y-103541938D01*
X67968498Y-103709940D01*
X67950081Y-103711815D01*
X67442015Y-103726002D01*
X67413893Y-103723624D01*
X67095419Y-103660187D01*
X67082189Y-103656043D01*
X67082157Y-103656159D01*
X67073505Y-103653780D01*
X67065272Y-103650197D01*
X67056365Y-103649068D01*
X67056364Y-103649068D01*
X67014684Y-103643786D01*
X67005912Y-103642358D01*
X66997016Y-103640586D01*
X66997012Y-103640586D01*
X66992612Y-103639709D01*
X66988140Y-103639466D01*
X66988135Y-103639465D01*
X66979420Y-103638991D01*
X66970429Y-103638177D01*
X66929681Y-103633013D01*
X66929679Y-103633013D01*
X66920770Y-103631884D01*
X66911901Y-103633301D01*
X66902933Y-103633446D01*
X66902931Y-103633351D01*
X66901895Y-103633405D01*
X66901903Y-103633498D01*
X66892964Y-103634286D01*
X66884000Y-103633798D01*
X66875260Y-103635846D01*
X66875255Y-103635846D01*
X66835232Y-103645222D01*
X66826375Y-103646965D01*
X66813214Y-103649068D01*
X66785805Y-103653447D01*
X66785804Y-103653447D01*
X66776937Y-103654864D01*
X66768823Y-103658713D01*
X66760252Y-103661371D01*
X66760224Y-103661279D01*
X66759249Y-103661620D01*
X66759284Y-103661709D01*
X66750923Y-103664975D01*
X66742182Y-103667022D01*
X66734369Y-103671439D01*
X66734368Y-103671440D01*
X66698592Y-103691669D01*
X66690579Y-103695829D01*
X66645335Y-103717290D01*
X66638632Y-103723258D01*
X66631149Y-103728216D01*
X66631096Y-103728137D01*
X66630258Y-103728736D01*
X66630316Y-103728811D01*
X66623203Y-103734295D01*
X66615390Y-103738713D01*
X66580467Y-103774606D01*
X66573946Y-103780844D01*
X66565382Y-103788467D01*
X66565371Y-103788478D01*
X66561742Y-103791709D01*
X66558654Y-103795459D01*
X66558649Y-103795464D01*
X66553569Y-103801633D01*
X66546613Y-103809400D01*
X66520074Y-103836676D01*
X66513814Y-103843110D01*
X66509612Y-103851041D01*
X66509376Y-103851365D01*
X66495611Y-103872010D01*
X66185150Y-104248999D01*
X66120514Y-104327485D01*
X66112524Y-104336303D01*
X65731266Y-104719089D01*
X65707748Y-104737654D01*
X65258887Y-105012256D01*
X65233834Y-105024019D01*
X64559588Y-105254159D01*
X64542519Y-105258677D01*
X63739638Y-105411933D01*
X63525426Y-105452822D01*
X63516209Y-105454231D01*
X63344170Y-105474033D01*
X62073507Y-105620288D01*
X62069155Y-105620711D01*
X60211234Y-105768896D01*
X60121162Y-105776080D01*
X60120017Y-105776166D01*
X56964121Y-105998948D01*
X56931958Y-105997090D01*
X56190685Y-105857669D01*
X56173439Y-105853141D01*
X55119742Y-105495119D01*
X55087636Y-105478770D01*
X54260873Y-104895411D01*
X54232852Y-104868241D01*
X53956471Y-104501118D01*
X53630372Y-104067952D01*
X53618905Y-104049641D01*
X53572358Y-103958820D01*
X53323163Y-103472607D01*
X53310018Y-103401647D01*
X53310367Y-103398411D01*
X53372965Y-102817129D01*
X53379249Y-102758776D01*
X53381463Y-102745217D01*
X53552482Y-101967186D01*
X53560159Y-101943617D01*
X53694306Y-101637834D01*
X53900857Y-101167010D01*
X53910766Y-101148704D01*
X53928845Y-101121041D01*
X54438331Y-100341438D01*
X54448612Y-100327818D01*
X54612409Y-100138936D01*
X55187344Y-99475952D01*
X55188747Y-99474362D01*
X55959380Y-98616682D01*
X55966042Y-98609811D01*
X55973741Y-98602452D01*
X55973743Y-98602450D01*
X55977258Y-98599090D01*
X55980215Y-98595229D01*
X55980219Y-98595224D01*
X55986201Y-98587412D01*
X55992516Y-98579803D01*
X55997262Y-98574521D01*
X56000263Y-98571181D01*
X56009342Y-98557613D01*
X56014022Y-98551078D01*
X56113089Y-98421706D01*
X56712408Y-97639051D01*
X56718742Y-97631426D01*
X56728451Y-97620634D01*
X56731112Y-97616557D01*
X56731116Y-97616551D01*
X56737039Y-97607474D01*
X56742517Y-97599732D01*
X56750174Y-97589733D01*
X56752365Y-97585828D01*
X56752372Y-97585817D01*
X56757665Y-97576383D01*
X56762030Y-97569177D01*
X57395740Y-96598051D01*
X57401720Y-96589659D01*
X57407071Y-96582764D01*
X57407072Y-96582762D01*
X57410062Y-96578910D01*
X57412527Y-96574457D01*
X57418090Y-96564407D01*
X57422810Y-96556566D01*
X57427709Y-96549059D01*
X57427710Y-96549058D01*
X57430160Y-96545303D01*
X57436249Y-96532230D01*
X57440227Y-96524414D01*
X58007322Y-95499905D01*
X58012837Y-95490861D01*
X58017291Y-95484204D01*
X58019994Y-95480164D01*
X58027283Y-95464487D01*
X58031293Y-95456599D01*
X58034075Y-95451574D01*
X58038163Y-95444188D01*
X58039753Y-95440005D01*
X58039757Y-95439997D01*
X58043031Y-95431384D01*
X58046550Y-95423043D01*
X58361403Y-94745799D01*
X58545021Y-94350839D01*
X58549997Y-94341238D01*
X58553695Y-94334795D01*
X58556121Y-94330569D01*
X58562517Y-94313909D01*
X58565887Y-94305958D01*
X58572102Y-94292590D01*
X58573395Y-94288303D01*
X58573398Y-94288295D01*
X58575891Y-94280029D01*
X58578894Y-94271253D01*
X58692698Y-93974833D01*
X59006690Y-93156991D01*
X59011067Y-93146928D01*
X59014145Y-93140618D01*
X59014148Y-93140611D01*
X59016278Y-93136243D01*
X59017714Y-93131590D01*
X59021662Y-93118795D01*
X59024429Y-93110792D01*
X59028253Y-93100831D01*
X59028256Y-93100823D01*
X59029857Y-93096651D01*
X59030852Y-93092291D01*
X59030854Y-93092284D01*
X59032684Y-93084264D01*
X59035127Y-93075146D01*
X59229972Y-92443591D01*
X59390129Y-91924467D01*
X59393849Y-91914056D01*
X59398248Y-91903269D01*
X59402515Y-91885267D01*
X59404718Y-91877182D01*
X59407938Y-91866746D01*
X59407940Y-91866737D01*
X59409259Y-91862462D01*
X59409958Y-91858044D01*
X59409961Y-91858033D01*
X59411206Y-91850168D01*
X59413052Y-91840815D01*
X59611685Y-91002801D01*
X59693097Y-90659333D01*
X59696135Y-90648640D01*
X59698237Y-90642319D01*
X59699769Y-90637712D01*
X59702856Y-90619352D01*
X59704509Y-90611185D01*
X59707053Y-90600454D01*
X59707054Y-90600446D01*
X59708087Y-90596089D01*
X59709202Y-90583803D01*
X59710430Y-90574305D01*
X59913295Y-89367665D01*
X59915618Y-89356801D01*
X59917302Y-89350335D01*
X59917304Y-89350326D01*
X59918529Y-89345621D01*
X59920391Y-89327123D01*
X59921501Y-89318857D01*
X59923326Y-89308003D01*
X59923327Y-89307995D01*
X59924069Y-89303580D01*
X59924370Y-89291226D01*
X59924965Y-89281676D01*
X59931998Y-89211812D01*
X60048389Y-88055474D01*
X60049977Y-88044542D01*
X60052163Y-88033055D01*
X60052782Y-88014624D01*
X60053345Y-88006234D01*
X60054431Y-87995448D01*
X60054431Y-87995444D01*
X60054880Y-87990985D01*
X60054356Y-87978487D01*
X60054316Y-87968977D01*
X60095622Y-86739567D01*
X60096234Y-86733070D01*
X60096085Y-86733058D01*
X60096461Y-86728206D01*
X60097210Y-86723394D01*
X60097210Y-86694429D01*
X60097281Y-86690198D01*
X60097999Y-86668838D01*
X60097999Y-86668833D01*
X60098149Y-86664363D01*
X60097664Y-86659913D01*
X60097495Y-86655427D01*
X60097565Y-86655424D01*
X60097210Y-86648902D01*
X60097210Y-85243195D01*
X60099113Y-85221378D01*
X60100625Y-85212776D01*
X60102179Y-85203938D01*
X60097978Y-85166059D01*
X60097645Y-85160044D01*
X60097529Y-85160052D01*
X60097210Y-85155575D01*
X60097210Y-85151096D01*
X60093536Y-85125448D01*
X60093035Y-85121497D01*
X60087113Y-85068094D01*
X60087113Y-85068093D01*
X60086123Y-85059168D01*
X60082957Y-85051574D01*
X60081790Y-85043422D01*
X60055802Y-84986266D01*
X60054234Y-84982667D01*
X60030081Y-84924724D01*
X60024910Y-84918321D01*
X60021502Y-84910827D01*
X59980521Y-84863266D01*
X59978012Y-84860259D01*
X59938557Y-84811412D01*
X59931796Y-84806718D01*
X59926423Y-84800482D01*
X59873769Y-84766352D01*
X59870446Y-84764123D01*
X59850624Y-84750361D01*
X59850623Y-84750361D01*
X59846624Y-84747584D01*
X59842245Y-84745456D01*
X59838043Y-84742996D01*
X59838147Y-84742818D01*
X59832894Y-84739859D01*
X59804195Y-84721257D01*
X59795590Y-84718684D01*
X59795589Y-84718683D01*
X59783470Y-84715058D01*
X59764496Y-84707666D01*
X58769359Y-84223993D01*
X58767581Y-84223112D01*
X58032082Y-83851206D01*
X58030189Y-83850228D01*
X57092239Y-83355857D01*
X57090764Y-83355067D01*
X56282081Y-82915015D01*
X56185400Y-82862405D01*
X56184000Y-82861579D01*
X56182644Y-82860560D01*
X56149898Y-82843083D01*
X56148999Y-82842598D01*
X56123085Y-82828496D01*
X56123080Y-82828493D01*
X56119242Y-82826405D01*
X56117655Y-82825815D01*
X56116176Y-82825084D01*
X55165616Y-82317744D01*
X55155772Y-82311765D01*
X55154224Y-82310870D01*
X55150215Y-82308119D01*
X55145829Y-82306017D01*
X55145824Y-82306014D01*
X55126887Y-82296938D01*
X55122021Y-82294475D01*
X55105896Y-82285869D01*
X55105892Y-82285867D01*
X55101942Y-82283759D01*
X55097725Y-82282229D01*
X55097282Y-82282068D01*
X55085802Y-82277248D01*
X54159377Y-81833245D01*
X54147606Y-81826812D01*
X54146947Y-81826405D01*
X54146945Y-81826404D01*
X54142802Y-81823844D01*
X54138326Y-81821957D01*
X54138311Y-81821949D01*
X54120291Y-81814352D01*
X54114797Y-81811879D01*
X54095587Y-81802673D01*
X54089464Y-81800748D01*
X54078322Y-81796657D01*
X53065620Y-81369675D01*
X53058947Y-81366392D01*
X53058929Y-81366430D01*
X53054511Y-81364361D01*
X53050279Y-81361965D01*
X53024549Y-81352260D01*
X53020132Y-81350496D01*
X52997652Y-81341017D01*
X52993312Y-81339878D01*
X52990323Y-81338861D01*
X52981958Y-81336193D01*
X51798754Y-80889861D01*
X51768844Y-80878578D01*
X51762933Y-80876165D01*
X51758766Y-80873933D01*
X51754180Y-80872325D01*
X51754178Y-80872324D01*
X51728411Y-80863289D01*
X51725633Y-80862278D01*
X51702626Y-80853599D01*
X51702622Y-80853598D01*
X51698434Y-80852018D01*
X51694063Y-80851048D01*
X51693198Y-80850790D01*
X51687486Y-80848939D01*
X51425314Y-80757009D01*
X50155242Y-80311661D01*
X50153949Y-80311156D01*
X50152624Y-80310459D01*
X50117120Y-80298292D01*
X50116586Y-80298107D01*
X50084109Y-80286719D01*
X50082647Y-80286430D01*
X50081273Y-80286008D01*
X48121745Y-79614508D01*
X48115684Y-79612034D01*
X48110889Y-79608842D01*
X48102326Y-79606167D01*
X48102320Y-79606164D01*
X48048225Y-79589264D01*
X48044984Y-79588203D01*
X48020030Y-79579652D01*
X48015625Y-79578815D01*
X48012672Y-79578032D01*
X48009236Y-79577040D01*
X48008700Y-79576917D01*
X48004062Y-79575468D01*
X47984064Y-79572479D01*
X47978309Y-79571619D01*
X47973418Y-79570789D01*
X47913172Y-79559334D01*
X47905057Y-79560121D01*
X47894457Y-79559089D01*
X47843956Y-79551542D01*
X46782009Y-79392844D01*
X45615393Y-79218504D01*
X45611697Y-79217836D01*
X45608527Y-79216901D01*
X45587681Y-79214128D01*
X45574344Y-79212353D01*
X45572340Y-79212070D01*
X45554329Y-79209379D01*
X45541236Y-79207422D01*
X45537939Y-79207402D01*
X45534096Y-79206998D01*
X45005128Y-79136616D01*
X44183205Y-79027255D01*
X44171043Y-79025025D01*
X44167671Y-79024234D01*
X44167667Y-79024233D01*
X44162931Y-79023122D01*
X44141234Y-79021469D01*
X44134192Y-79020733D01*
X44120142Y-79018864D01*
X44120138Y-79018864D01*
X44115690Y-79018272D01*
X44106701Y-79018362D01*
X44106564Y-79018363D01*
X44095740Y-79018005D01*
X42994462Y-78934135D01*
X42986585Y-78933284D01*
X42967063Y-78930550D01*
X42956441Y-78930713D01*
X42944952Y-78930364D01*
X42937439Y-78929792D01*
X42932975Y-78930088D01*
X42932973Y-78930088D01*
X42916895Y-78931154D01*
X42910487Y-78931415D01*
X42254982Y-78941443D01*
X41934313Y-78946349D01*
X41928063Y-78946290D01*
X41903924Y-78945460D01*
X41899101Y-78946042D01*
X41899097Y-78946042D01*
X41897624Y-78946220D01*
X41889149Y-78946795D01*
X41885719Y-78947092D01*
X41881228Y-78947161D01*
X41869050Y-78949095D01*
X41856389Y-78951106D01*
X41851719Y-78951759D01*
X40890457Y-79067756D01*
X40881267Y-79068525D01*
X40869732Y-79069066D01*
X40869731Y-79069066D01*
X40864872Y-79069294D01*
X40860108Y-79070266D01*
X40860103Y-79070267D01*
X40851320Y-79072060D01*
X40841217Y-79073698D01*
X40838317Y-79074048D01*
X40830577Y-79074982D01*
X40813916Y-79079455D01*
X40806458Y-79081216D01*
X39750209Y-79296796D01*
X39744177Y-79297858D01*
X39739564Y-79298180D01*
X39707951Y-79305390D01*
X39705193Y-79305985D01*
X39700033Y-79307038D01*
X39680930Y-79310936D01*
X39680922Y-79310938D01*
X39676538Y-79311833D01*
X39672322Y-79313341D01*
X39671876Y-79313466D01*
X39665987Y-79314959D01*
X37828216Y-79734061D01*
X37827136Y-79734302D01*
X36453397Y-80033090D01*
X36270091Y-80072959D01*
X36268175Y-80073361D01*
X34971944Y-80334252D01*
X34969165Y-80334778D01*
X34178651Y-80475307D01*
X33880808Y-80528254D01*
X33877000Y-80528871D01*
X32942275Y-80665659D01*
X32937655Y-80666248D01*
X32094743Y-80757933D01*
X32092281Y-80758176D01*
X31163882Y-80840756D01*
X30290822Y-80918413D01*
X30264980Y-80918050D01*
X28896087Y-80757418D01*
X28889171Y-80756411D01*
X27579056Y-80528254D01*
X27531425Y-80519959D01*
X27505027Y-80512319D01*
X27063209Y-80330211D01*
X26673552Y-80169603D01*
X26639515Y-80148730D01*
X26556869Y-80077808D01*
X25977719Y-79580819D01*
X25966146Y-79569521D01*
X25622555Y-79188009D01*
X25591831Y-79124005D01*
X25590753Y-79091705D01*
X25595996Y-79036830D01*
X25604709Y-78945627D01*
X25632038Y-78659560D01*
X25632048Y-78659453D01*
X25651289Y-78459855D01*
X25693406Y-78022963D01*
X25695101Y-78011210D01*
X25695669Y-78008265D01*
X25698601Y-77999777D01*
X25701415Y-77941390D01*
X25701850Y-77935371D01*
X25703383Y-77919474D01*
X25703383Y-77919459D01*
X25703813Y-77915002D01*
X25703536Y-77908997D01*
X25703548Y-77897126D01*
X25705180Y-77863255D01*
X25705612Y-77854288D01*
X25703511Y-77845563D01*
X25703510Y-77845555D01*
X25702732Y-77842325D01*
X25699364Y-77818642D01*
X25699210Y-77815311D01*
X25698796Y-77806345D01*
X25684872Y-77765777D01*
X25681551Y-77754377D01*
X25673611Y-77721411D01*
X25673610Y-77721409D01*
X25671508Y-77712680D01*
X25665387Y-77702009D01*
X25655508Y-77680224D01*
X25654424Y-77677067D01*
X25651510Y-77668577D01*
X25626745Y-77633527D01*
X25620368Y-77623532D01*
X25603497Y-77594123D01*
X25603496Y-77594122D01*
X25599029Y-77586335D01*
X25590155Y-77577807D01*
X25574559Y-77559669D01*
X25572638Y-77556950D01*
X25572637Y-77556949D01*
X25567457Y-77549618D01*
X25560430Y-77544037D01*
X25560427Y-77544034D01*
X25533858Y-77522933D01*
X25524915Y-77515115D01*
X25521842Y-77512162D01*
X25518331Y-77508788D01*
X25502080Y-77497404D01*
X25496012Y-77492876D01*
X25460422Y-77464611D01*
X25453395Y-77459030D01*
X25445085Y-77455646D01*
X25437332Y-77451114D01*
X25437615Y-77450629D01*
X25427198Y-77444954D01*
X25396451Y-77423417D01*
X25265636Y-77331789D01*
X25243401Y-77311904D01*
X24684851Y-76678238D01*
X24672742Y-76664501D01*
X24663043Y-76651993D01*
X24648993Y-76631313D01*
X24444445Y-76330238D01*
X24422708Y-76262652D01*
X24422991Y-76250398D01*
X24438213Y-76038624D01*
X24474594Y-75532467D01*
X24474604Y-75532381D01*
X24474636Y-75532242D01*
X24477478Y-75492348D01*
X24477508Y-75492270D01*
X24477484Y-75492268D01*
X24480019Y-75457007D01*
X24480019Y-75456997D01*
X24480046Y-75456626D01*
X24480037Y-75456496D01*
X24480041Y-75456379D01*
X24533156Y-74710899D01*
X24536080Y-74669850D01*
X24554296Y-74613023D01*
X24718367Y-74344992D01*
X24952652Y-73962258D01*
X24959632Y-73952023D01*
X24999724Y-73899032D01*
X25008265Y-73887743D01*
X118883579Y-73887743D01*
X118886955Y-73899032D01*
X118993128Y-74254043D01*
X119011003Y-74313813D01*
X119960074Y-75180700D01*
X119961047Y-75181519D01*
X119961051Y-75181523D01*
X120421096Y-75568986D01*
X120978709Y-76038624D01*
X120980387Y-76039856D01*
X120980390Y-76039859D01*
X121830729Y-76664502D01*
X121849428Y-76678238D01*
X122851501Y-77285470D01*
X122852899Y-77286223D01*
X122852915Y-77286232D01*
X123863845Y-77830645D01*
X124264198Y-78046246D01*
X124264785Y-78046547D01*
X124264791Y-78046550D01*
X125681828Y-78772790D01*
X125758389Y-78812028D01*
X125763216Y-78813588D01*
X125763223Y-78813591D01*
X126414946Y-79024234D01*
X126452878Y-79036494D01*
X126469883Y-79032340D01*
X126469884Y-79032340D01*
X126951246Y-78914755D01*
X126951290Y-78914744D01*
X126951242Y-78914740D01*
X127108065Y-78875505D01*
X128150660Y-78614662D01*
X128150684Y-78614656D01*
X128151462Y-78614461D01*
X128708109Y-78459855D01*
X129205970Y-78321577D01*
X129205973Y-78321576D01*
X129211607Y-78320011D01*
X130164830Y-77852158D01*
X130866100Y-77323171D01*
X130988739Y-77230661D01*
X130988740Y-77230660D01*
X130993616Y-77226982D01*
X130997692Y-77222434D01*
X131676317Y-76465180D01*
X131676321Y-76465175D01*
X131680452Y-76460565D01*
X132207822Y-75568986D01*
X132216529Y-75544122D01*
X132503772Y-74723800D01*
X132558213Y-74568326D01*
X132558939Y-74565351D01*
X132558942Y-74565341D01*
X132648583Y-74198033D01*
X132652878Y-74180434D01*
X132637506Y-74177721D01*
X132637504Y-74177720D01*
X132282797Y-74115113D01*
X132100523Y-74082941D01*
X132095949Y-74082046D01*
X131513392Y-73956741D01*
X131511068Y-73956218D01*
X130509681Y-73720277D01*
X130508600Y-73720016D01*
X129728543Y-73528429D01*
X129306829Y-73424853D01*
X129306808Y-73424848D01*
X129306250Y-73424711D01*
X129305696Y-73424586D01*
X129305684Y-73424583D01*
X128500545Y-73242674D01*
X127717630Y-73065786D01*
X127715998Y-73065507D01*
X127715980Y-73065503D01*
X126242681Y-72813261D01*
X126242676Y-72813260D01*
X126240735Y-72812928D01*
X126238777Y-72812718D01*
X126238768Y-72812717D01*
X125490556Y-72732564D01*
X124870915Y-72666184D01*
X123858965Y-72633782D01*
X123606302Y-72625692D01*
X123606300Y-72625692D01*
X123603519Y-72625603D01*
X123223493Y-72646927D01*
X122437114Y-72691051D01*
X122437105Y-72691052D01*
X122433897Y-72691232D01*
X121357398Y-72863119D01*
X120369373Y-73141312D01*
X119465172Y-73525859D01*
X119461045Y-73528427D01*
X119461041Y-73528429D01*
X119153153Y-73720006D01*
X118883579Y-73887743D01*
X25008265Y-73887743D01*
X25448013Y-73306503D01*
X25463714Y-73289315D01*
X25627630Y-73140223D01*
X26075820Y-72732564D01*
X26092399Y-72719828D01*
X26130439Y-72695340D01*
X26844648Y-72235573D01*
X26861006Y-72226680D01*
X27473278Y-71950312D01*
X27771771Y-71815578D01*
X27777202Y-71813278D01*
X28479393Y-71535100D01*
X28874737Y-71378482D01*
X28881291Y-71376327D01*
X28881256Y-71376228D01*
X28885846Y-71374628D01*
X28890556Y-71373384D01*
X28895013Y-71371432D01*
X28895020Y-71371430D01*
X28916532Y-71362011D01*
X28920661Y-71360290D01*
X28939950Y-71352648D01*
X28939955Y-71352646D01*
X28944119Y-71350996D01*
X28948010Y-71348771D01*
X28952042Y-71346832D01*
X28952055Y-71346859D01*
X28958225Y-71343755D01*
X29890185Y-70935689D01*
X30090880Y-70847813D01*
X30096346Y-70845572D01*
X30100825Y-70843856D01*
X30105484Y-70842473D01*
X30118541Y-70836278D01*
X30132571Y-70829622D01*
X30136043Y-70828039D01*
X30156596Y-70819039D01*
X30156601Y-70819037D01*
X30160706Y-70817239D01*
X30164509Y-70814881D01*
X30168484Y-70812793D01*
X30168549Y-70812917D01*
X30173729Y-70810094D01*
X31323432Y-70264610D01*
X31329074Y-70262101D01*
X31331927Y-70260915D01*
X31336548Y-70259400D01*
X31363894Y-70245467D01*
X31367085Y-70243898D01*
X31371340Y-70241879D01*
X31391958Y-70232097D01*
X31395703Y-70229615D01*
X31399600Y-70227414D01*
X31399686Y-70227567D01*
X31404426Y-70224816D01*
X32535356Y-69648605D01*
X32540868Y-69645963D01*
X32544061Y-69644527D01*
X32548647Y-69642876D01*
X32575442Y-69628239D01*
X32578640Y-69626552D01*
X32599029Y-69616164D01*
X32599035Y-69616161D01*
X32603018Y-69614131D01*
X32606674Y-69611557D01*
X32610525Y-69609236D01*
X32610616Y-69609388D01*
X32615360Y-69606433D01*
X32836089Y-69485858D01*
X33692277Y-69018157D01*
X33697934Y-69015501D01*
X33697853Y-69015336D01*
X33702230Y-69013195D01*
X33706753Y-69011401D01*
X33710944Y-69008933D01*
X33710955Y-69008928D01*
X33732067Y-68996497D01*
X33735590Y-68994498D01*
X33754768Y-68984021D01*
X33754769Y-68984021D01*
X33758700Y-68981873D01*
X33762282Y-68979193D01*
X33766065Y-68976763D01*
X33766118Y-68976846D01*
X33771335Y-68973374D01*
X33944037Y-68871686D01*
X34760748Y-68390800D01*
X34767643Y-68387256D01*
X34767641Y-68387251D01*
X34771936Y-68384933D01*
X34776375Y-68382963D01*
X34780466Y-68380329D01*
X34799024Y-68368380D01*
X34803306Y-68365742D01*
X34819994Y-68355916D01*
X34820005Y-68355909D01*
X34823861Y-68353638D01*
X34827366Y-68350837D01*
X34828671Y-68349937D01*
X34837325Y-68343718D01*
X35378732Y-67995106D01*
X35706425Y-67784105D01*
X35717184Y-67777906D01*
X35724453Y-67774182D01*
X35742193Y-67761307D01*
X35747988Y-67757343D01*
X35760045Y-67749579D01*
X35760049Y-67749576D01*
X35763815Y-67747151D01*
X35770586Y-67741280D01*
X35779116Y-67734508D01*
X36395892Y-67286854D01*
X36506023Y-67206921D01*
X36509844Y-67204255D01*
X36517664Y-67199011D01*
X37168119Y-66762793D01*
X37175089Y-66758441D01*
X37217490Y-66733855D01*
X38070336Y-66239330D01*
X38073694Y-66237450D01*
X38124376Y-66210100D01*
X38325032Y-66101817D01*
X39145968Y-65658803D01*
X39146478Y-65658530D01*
X39209090Y-65625113D01*
X39209095Y-65625109D01*
X39217010Y-65620885D01*
X39237804Y-65600529D01*
X39250983Y-65589295D01*
X39274369Y-65571988D01*
X39279796Y-65564838D01*
X39290185Y-65551150D01*
X39302406Y-65537289D01*
X39304346Y-65535390D01*
X39321096Y-65518993D01*
X39325492Y-65511163D01*
X39335336Y-65493629D01*
X39344839Y-65479136D01*
X39357001Y-65463111D01*
X39362427Y-65455962D01*
X39371759Y-65431519D01*
X39379600Y-65414785D01*
X39388005Y-65399812D01*
X39392401Y-65391982D01*
X39394422Y-65383237D01*
X39394423Y-65383234D01*
X39398950Y-65363642D01*
X39404002Y-65347069D01*
X39411178Y-65328273D01*
X39414380Y-65319886D01*
X39417151Y-65285417D01*
X39417278Y-65284321D01*
X39417598Y-65282937D01*
X39419908Y-65251171D01*
X39419976Y-65250278D01*
X39425672Y-65179451D01*
X39425672Y-65179446D01*
X39426054Y-65174696D01*
X39425705Y-65173013D01*
X39425714Y-65171359D01*
X39429613Y-65117761D01*
X39430071Y-65111459D01*
X43638928Y-65111459D01*
X43651201Y-65117760D01*
X43651202Y-65117761D01*
X44521998Y-65564838D01*
X44649325Y-65630209D01*
X44650525Y-65630763D01*
X44650532Y-65630766D01*
X45438797Y-65994418D01*
X45811407Y-66166315D01*
X46911779Y-66586125D01*
X47536174Y-66731589D01*
X47624990Y-66282358D01*
X47721453Y-65794452D01*
X47721453Y-65794451D01*
X47724505Y-65779014D01*
X47724509Y-65779014D01*
X47723743Y-65759201D01*
X47685468Y-64770140D01*
X47685405Y-64768503D01*
X47680829Y-64718512D01*
X47596684Y-63799380D01*
X47552100Y-63312379D01*
X47550446Y-63299125D01*
X47386100Y-61982575D01*
X47385754Y-61979803D01*
X47385164Y-61977070D01*
X47251348Y-61357646D01*
X47251347Y-61357645D01*
X47247522Y-61339938D01*
X47230085Y-61346800D01*
X47230084Y-61346800D01*
X46426044Y-61663207D01*
X46426042Y-61663208D01*
X46419801Y-61665664D01*
X45104579Y-62542018D01*
X45100413Y-62546076D01*
X44401726Y-63226612D01*
X44401724Y-63226615D01*
X44396507Y-63231696D01*
X44392595Y-63237834D01*
X44392593Y-63237836D01*
X43961590Y-63914028D01*
X43922346Y-63975597D01*
X43919843Y-63984012D01*
X43919842Y-63984014D01*
X43704594Y-64707664D01*
X43687439Y-64765338D01*
X43638928Y-65111459D01*
X39430071Y-65111459D01*
X39479424Y-64432987D01*
X39481238Y-64418974D01*
X39497389Y-64332612D01*
X39639685Y-63571697D01*
X39647440Y-63545896D01*
X39660959Y-63513843D01*
X39777365Y-63237836D01*
X39990441Y-62732620D01*
X40001682Y-62711718D01*
X40546639Y-61893841D01*
X40558976Y-61878172D01*
X41312281Y-61063359D01*
X41325039Y-61051354D01*
X42166414Y-60363341D01*
X42204090Y-60342118D01*
X42586565Y-60206588D01*
X42657453Y-60202689D01*
X42680673Y-60210594D01*
X42891394Y-60306128D01*
X42941824Y-60347547D01*
X43220943Y-60737508D01*
X43406460Y-60996696D01*
X43410169Y-61002176D01*
X43422659Y-61021718D01*
X43425881Y-61025368D01*
X43425883Y-61025371D01*
X43427458Y-61027155D01*
X43434720Y-61036280D01*
X43435253Y-61036923D01*
X43437863Y-61040569D01*
X43454591Y-61058047D01*
X43457973Y-61061726D01*
X43907189Y-61570652D01*
X43919561Y-61587238D01*
X43930574Y-61604856D01*
X43937280Y-61610829D01*
X43937281Y-61610830D01*
X43958860Y-61630050D01*
X43963211Y-61634120D01*
X43966126Y-61637423D01*
X43969527Y-61640319D01*
X43969542Y-61640334D01*
X43988129Y-61656162D01*
X43990238Y-61657998D01*
X44024475Y-61688491D01*
X44039344Y-61701734D01*
X44044550Y-61704205D01*
X44048941Y-61707944D01*
X44057132Y-61711611D01*
X44057134Y-61711612D01*
X44108989Y-61734825D01*
X44111534Y-61735999D01*
X44162821Y-61760342D01*
X44162826Y-61760344D01*
X44170932Y-61764191D01*
X44176624Y-61765102D01*
X44181885Y-61767457D01*
X44190769Y-61768676D01*
X44190778Y-61768679D01*
X44247093Y-61776409D01*
X44249865Y-61776821D01*
X44305893Y-61785786D01*
X44305897Y-61785786D01*
X44314759Y-61787204D01*
X44320476Y-61786481D01*
X44326189Y-61787265D01*
X44335066Y-61785941D01*
X44335067Y-61785941D01*
X44391230Y-61777564D01*
X44394006Y-61777181D01*
X44450363Y-61770052D01*
X44459265Y-61768926D01*
X44464551Y-61766627D01*
X44470254Y-61765776D01*
X44529988Y-61738195D01*
X44532459Y-61737086D01*
X44561894Y-61724282D01*
X44565648Y-61721903D01*
X44570787Y-61719357D01*
X44594344Y-61708480D01*
X44594346Y-61708478D01*
X44602495Y-61704716D01*
X44621105Y-61688491D01*
X44636468Y-61677031D01*
X45373699Y-61209907D01*
X45378862Y-61206830D01*
X45382988Y-61204924D01*
X45387032Y-61202232D01*
X45387043Y-61202226D01*
X45410024Y-61186929D01*
X45412403Y-61185383D01*
X45433428Y-61172062D01*
X45433434Y-61172057D01*
X45437210Y-61169665D01*
X45440620Y-61166751D01*
X45440749Y-61166656D01*
X45445773Y-61163132D01*
X45595668Y-61063359D01*
X46130969Y-60707050D01*
X46143913Y-60698434D01*
X46158081Y-60690277D01*
X46637036Y-60454507D01*
X46990777Y-60280375D01*
X46999945Y-60276307D01*
X47013432Y-60270955D01*
X47514253Y-60072206D01*
X47584949Y-60065670D01*
X47647954Y-60098393D01*
X47674577Y-60135332D01*
X47706610Y-60202880D01*
X47713123Y-60219596D01*
X47721346Y-60246159D01*
X47741730Y-60276954D01*
X47741758Y-60276999D01*
X47741789Y-60277065D01*
X47741906Y-60277242D01*
X47741916Y-60277258D01*
X47761039Y-60306127D01*
X47762248Y-60307952D01*
X47801744Y-60367619D01*
X47801808Y-60367673D01*
X47801857Y-60367747D01*
X47808717Y-60373539D01*
X47808718Y-60373541D01*
X47858358Y-60415458D01*
X47858354Y-60415463D01*
X47858387Y-60415482D01*
X47912999Y-60461631D01*
X47913077Y-60461666D01*
X47913144Y-60461722D01*
X47980508Y-60491544D01*
X47980538Y-60491570D01*
X47980543Y-60491560D01*
X48046169Y-60520639D01*
X48046253Y-60520650D01*
X48046334Y-60520686D01*
X48055278Y-60521876D01*
X48055281Y-60521877D01*
X48097243Y-60527460D01*
X48119718Y-60530450D01*
X48119758Y-60530468D01*
X48119760Y-60530456D01*
X48156909Y-60535412D01*
X48156913Y-60535412D01*
X48157105Y-60535438D01*
X48157172Y-60535436D01*
X48157230Y-60535442D01*
X48162648Y-60536163D01*
X48181818Y-60538714D01*
X48181821Y-60538714D01*
X48190719Y-60539898D01*
X48222082Y-60535087D01*
X48238421Y-60533662D01*
X48544157Y-60526981D01*
X48801960Y-60521348D01*
X48821344Y-60522421D01*
X48836286Y-60524411D01*
X48836290Y-60524411D01*
X48845188Y-60525596D01*
X48882748Y-60519840D01*
X48885289Y-60519527D01*
X48887749Y-60519473D01*
X48892162Y-60518742D01*
X48892176Y-60518741D01*
X48919502Y-60514216D01*
X48920965Y-60513982D01*
X48944715Y-60510342D01*
X48981232Y-60504746D01*
X48981234Y-60504745D01*
X48989164Y-60503530D01*
X48991983Y-60502215D01*
X48995061Y-60501705D01*
X49057320Y-60471739D01*
X49058652Y-60471108D01*
X49090586Y-60456208D01*
X49092636Y-60454832D01*
X49094886Y-60453657D01*
X49118219Y-60442427D01*
X49118220Y-60442426D01*
X49126307Y-60438534D01*
X49147090Y-60419820D01*
X49161194Y-60408827D01*
X49459566Y-60208607D01*
X49527277Y-60187259D01*
X49573281Y-60194983D01*
X49628916Y-60215452D01*
X49648691Y-60225121D01*
X49651132Y-60226196D01*
X49658750Y-60230940D01*
X49667393Y-60233355D01*
X49667399Y-60233358D01*
X49704903Y-60243839D01*
X49714494Y-60246937D01*
X49717085Y-60247890D01*
X49724453Y-60250601D01*
X49740327Y-60253989D01*
X49747907Y-60255856D01*
X49760446Y-60259360D01*
X49790384Y-60267727D01*
X49790385Y-60267727D01*
X49799033Y-60270144D01*
X49808011Y-60270036D01*
X49815024Y-60270955D01*
X49822051Y-60271434D01*
X49830829Y-60273308D01*
X49839779Y-60272643D01*
X49839782Y-60272643D01*
X49873402Y-60270144D01*
X49883780Y-60269373D01*
X49891599Y-60269035D01*
X49901150Y-60268921D01*
X49935707Y-60268507D01*
X49935710Y-60268507D01*
X49944680Y-60268399D01*
X49953265Y-60265777D01*
X49960246Y-60264691D01*
X49967129Y-60263178D01*
X49976086Y-60262512D01*
X49984492Y-60259361D01*
X49984495Y-60259360D01*
X50025808Y-60243872D01*
X50033224Y-60241352D01*
X50059392Y-60233358D01*
X50075397Y-60228469D01*
X50075398Y-60228468D01*
X50083983Y-60225846D01*
X50091488Y-60220918D01*
X50097882Y-60217918D01*
X50104063Y-60214534D01*
X50112474Y-60211381D01*
X50154990Y-60179517D01*
X50161359Y-60175046D01*
X50205744Y-60145906D01*
X50211561Y-60139075D01*
X50216870Y-60134388D01*
X50221850Y-60129408D01*
X50229031Y-60124026D01*
X50234413Y-60116845D01*
X50260880Y-60081530D01*
X50265771Y-60075410D01*
X50294355Y-60041839D01*
X50300174Y-60035005D01*
X50303841Y-60026812D01*
X50307601Y-60020856D01*
X50310995Y-60014657D01*
X50316383Y-60007468D01*
X50322533Y-59991064D01*
X50335017Y-59957761D01*
X50337994Y-59950514D01*
X50341849Y-59941901D01*
X50345899Y-59932853D01*
X50346177Y-59931835D01*
X51464972Y-59931835D01*
X51466059Y-59941992D01*
X51466059Y-59941994D01*
X51616282Y-61345625D01*
X51635585Y-61525990D01*
X51835537Y-62885065D01*
X52076690Y-63914028D01*
X52077474Y-63916460D01*
X52077482Y-63916488D01*
X52335670Y-64717168D01*
X52336506Y-64719864D01*
X52579963Y-65537881D01*
X52845192Y-66217944D01*
X52860648Y-66220045D01*
X52860649Y-66220045D01*
X53319132Y-66282358D01*
X53336563Y-66284727D01*
X53486186Y-66217944D01*
X54440258Y-65792101D01*
X54440263Y-65792098D01*
X54442630Y-65791042D01*
X55474204Y-65224504D01*
X55476451Y-65223006D01*
X55476458Y-65223001D01*
X56299202Y-64674218D01*
X56299207Y-64674214D01*
X56301945Y-64672388D01*
X57321502Y-63825812D01*
X57447491Y-63721199D01*
X57447496Y-63721195D01*
X57448494Y-63720366D01*
X57519365Y-63656349D01*
X58463077Y-62803897D01*
X58463080Y-62803894D01*
X58464361Y-62802737D01*
X59208647Y-62052974D01*
X59418826Y-61768926D01*
X59531601Y-61616515D01*
X59540455Y-61604549D01*
X59543368Y-61587239D01*
X59547920Y-61560184D01*
X110971076Y-61560184D01*
X110976838Y-61571398D01*
X110976838Y-61571399D01*
X112002186Y-63566882D01*
X112002283Y-63567070D01*
X112753082Y-65006303D01*
X112753355Y-65006806D01*
X112753364Y-65006823D01*
X112847042Y-65179451D01*
X113405965Y-66209427D01*
X113406343Y-66210086D01*
X113406351Y-66210100D01*
X113621274Y-66584598D01*
X113973335Y-67198054D01*
X113973919Y-67198994D01*
X113973929Y-67199011D01*
X114448190Y-67962554D01*
X114467595Y-67993796D01*
X114900252Y-68616973D01*
X114902020Y-68619591D01*
X115083410Y-68895466D01*
X115370428Y-69331991D01*
X115449323Y-69451983D01*
X115990608Y-70277528D01*
X115991728Y-70279032D01*
X115991736Y-70279043D01*
X116521071Y-70989657D01*
X116521072Y-70989658D01*
X116531892Y-71004183D01*
X117037091Y-70912152D01*
X118263946Y-70603200D01*
X118264005Y-70603200D01*
X118264028Y-70603289D01*
X118264033Y-70603286D01*
X118264005Y-70603200D01*
X118263946Y-70603200D01*
X118264002Y-70603186D01*
X118264002Y-70603189D01*
X118264003Y-70603189D01*
X118264698Y-70602965D01*
X118264700Y-70602964D01*
X118269070Y-70601556D01*
X118269077Y-70601554D01*
X119482095Y-70210607D01*
X119482100Y-70210605D01*
X119484316Y-70209891D01*
X119486462Y-70209020D01*
X119486469Y-70209018D01*
X120170789Y-69931447D01*
X120458197Y-69814870D01*
X120460436Y-69813746D01*
X120460442Y-69813743D01*
X121510701Y-69286375D01*
X121510716Y-69286367D01*
X121511708Y-69285869D01*
X121999024Y-69018157D01*
X122793823Y-68581526D01*
X122793840Y-68581516D01*
X122794878Y-68580946D01*
X122795890Y-68580338D01*
X122795915Y-68580324D01*
X123840553Y-67953103D01*
X123840569Y-67953093D01*
X123842016Y-67952224D01*
X124743785Y-67342069D01*
X124745260Y-67340938D01*
X124745269Y-67340932D01*
X125590549Y-66693078D01*
X125590579Y-66693055D01*
X125590850Y-66692847D01*
X126475725Y-65996862D01*
X126478938Y-65994418D01*
X127140601Y-65507480D01*
X127140621Y-65507465D01*
X127141064Y-65507139D01*
X127158761Y-65493629D01*
X127651097Y-65117761D01*
X128200199Y-64698556D01*
X128451985Y-64169880D01*
X127971033Y-63764455D01*
X127629834Y-63567294D01*
X127427342Y-63450285D01*
X127422068Y-63447062D01*
X126983639Y-63164161D01*
X126583404Y-62905906D01*
X126580610Y-62904049D01*
X126447739Y-62813196D01*
X125625817Y-62251193D01*
X125625022Y-62250644D01*
X125623410Y-62249522D01*
X124840313Y-61704716D01*
X123901563Y-61051621D01*
X123901538Y-61051604D01*
X123900976Y-61051213D01*
X123900377Y-61050814D01*
X122534728Y-60141451D01*
X122534714Y-60141442D01*
X122533586Y-60140691D01*
X121430506Y-59472210D01*
X120498947Y-58998597D01*
X120462288Y-58984587D01*
X119649379Y-58673920D01*
X119649375Y-58673919D01*
X119646118Y-58672674D01*
X119642740Y-58671796D01*
X119642738Y-58671795D01*
X118781643Y-58447895D01*
X118781638Y-58447894D01*
X118779227Y-58447267D01*
X118431779Y-58385870D01*
X117806202Y-58275325D01*
X117806162Y-58275318D01*
X117805486Y-58275199D01*
X116676234Y-58103239D01*
X116663901Y-58106412D01*
X116663900Y-58106412D01*
X116007333Y-58275325D01*
X115796431Y-58329583D01*
X114750982Y-58659772D01*
X114747031Y-58661655D01*
X114747028Y-58661656D01*
X113995182Y-59019940D01*
X113838836Y-59094445D01*
X113834833Y-59097174D01*
X113834830Y-59097176D01*
X113564045Y-59281800D01*
X112983177Y-59677841D01*
X112980191Y-59680487D01*
X112980185Y-59680492D01*
X112108308Y-60453204D01*
X112108296Y-60453215D01*
X112107187Y-60454198D01*
X110971076Y-61560184D01*
X59547920Y-61560184D01*
X59614131Y-61166656D01*
X59655811Y-60918928D01*
X59661781Y-60518932D01*
X59669635Y-59992682D01*
X59669635Y-59992671D01*
X59669674Y-59990038D01*
X59667704Y-59961552D01*
X59615360Y-59204869D01*
X59592284Y-58871281D01*
X59591831Y-58867685D01*
X59454850Y-57782233D01*
X59433879Y-57616057D01*
X59416887Y-57516830D01*
X59341438Y-57076254D01*
X59204698Y-56277767D01*
X58981935Y-55225943D01*
X58915235Y-54911005D01*
X58915231Y-54910989D01*
X58914982Y-54909812D01*
X58574969Y-53565594D01*
X58194898Y-52298513D01*
X57902743Y-51488423D01*
X57785844Y-51164286D01*
X57785843Y-51164284D01*
X57785009Y-51161971D01*
X57662980Y-50891298D01*
X57356244Y-50210929D01*
X57356240Y-50210922D01*
X57355540Y-50209368D01*
X57349832Y-50198330D01*
X57117355Y-49748769D01*
X57117354Y-49748768D01*
X57109033Y-49732677D01*
X57100437Y-49741067D01*
X56839808Y-49995455D01*
X56388254Y-50436197D01*
X56047643Y-50791430D01*
X55698618Y-51155438D01*
X55532235Y-51328963D01*
X54754205Y-52259699D01*
X54752908Y-52261494D01*
X54752902Y-52261501D01*
X54406338Y-52740930D01*
X54054919Y-53227075D01*
X54053726Y-53229005D01*
X53473224Y-54168142D01*
X53435136Y-54229760D01*
X53434066Y-54231816D01*
X53434062Y-54231823D01*
X53216769Y-54649337D01*
X52895610Y-55266423D01*
X52894684Y-55268584D01*
X52894681Y-55268589D01*
X52753621Y-55597560D01*
X52437100Y-56335732D01*
X52060360Y-57436358D01*
X51766149Y-58566970D01*
X51464972Y-59931835D01*
X50346177Y-59931835D01*
X50348504Y-59923309D01*
X50352074Y-59912262D01*
X50364360Y-59879487D01*
X50364361Y-59879482D01*
X50367511Y-59871079D01*
X50368390Y-59859247D01*
X50372489Y-59835413D01*
X50636364Y-58868440D01*
X50639570Y-58858373D01*
X50642348Y-58850770D01*
X50642350Y-58850761D01*
X50644018Y-58846197D01*
X50647367Y-58829312D01*
X50649404Y-58820653D01*
X50653115Y-58807056D01*
X50654819Y-58793404D01*
X50656256Y-58784493D01*
X50678187Y-58673920D01*
X50865329Y-57730352D01*
X50868125Y-57719030D01*
X51191042Y-56630619D01*
X51194288Y-56621092D01*
X51624262Y-55507272D01*
X51627807Y-55498988D01*
X52154806Y-54379651D01*
X52158612Y-54372219D01*
X52772168Y-53266509D01*
X52776318Y-53259567D01*
X52778268Y-53256532D01*
X53465523Y-52186409D01*
X53470127Y-52179724D01*
X53871345Y-51635631D01*
X54139289Y-51272270D01*
X54223826Y-51157629D01*
X54229077Y-51150988D01*
X54760716Y-50523119D01*
X55035729Y-50198328D01*
X55041886Y-50191569D01*
X55225987Y-50003674D01*
X55629259Y-49592090D01*
X55889488Y-49326497D01*
X55896935Y-49319489D01*
X56065022Y-49173717D01*
X56747341Y-48581981D01*
X56767815Y-48567526D01*
X57194950Y-48325710D01*
X57264084Y-48309556D01*
X57330977Y-48333343D01*
X57346366Y-48346509D01*
X57563157Y-48564532D01*
X57580768Y-48586774D01*
X57944225Y-49170525D01*
X57946147Y-49173717D01*
X57974241Y-49221963D01*
X57974244Y-49221966D01*
X57978761Y-49229724D01*
X57985275Y-49235903D01*
X57985276Y-49235904D01*
X58005640Y-49255221D01*
X58015365Y-49265547D01*
X58033426Y-49287027D01*
X58039207Y-49293902D01*
X58054344Y-49303975D01*
X58071246Y-49317451D01*
X58084440Y-49329966D01*
X58108802Y-49342479D01*
X58117401Y-49346896D01*
X58129638Y-49354080D01*
X58160469Y-49374597D01*
X58177828Y-49380018D01*
X58197822Y-49388204D01*
X58214005Y-49396516D01*
X58222816Y-49398211D01*
X58222817Y-49398211D01*
X58250378Y-49403512D01*
X58264138Y-49406972D01*
X58283525Y-49413026D01*
X58299504Y-49418016D01*
X58312474Y-49418252D01*
X58317681Y-49418347D01*
X58339184Y-49420594D01*
X58348224Y-49422333D01*
X58348231Y-49422333D01*
X58357041Y-49424028D01*
X58393927Y-49420533D01*
X58408093Y-49419992D01*
X58445138Y-49420667D01*
X58462688Y-49415880D01*
X58483943Y-49412003D01*
X58502049Y-49410288D01*
X58510384Y-49406969D01*
X58510388Y-49406968D01*
X58536462Y-49396585D01*
X58549916Y-49392088D01*
X58576998Y-49384700D01*
X58577002Y-49384698D01*
X58585662Y-49382336D01*
X58601159Y-49372818D01*
X58620481Y-49363127D01*
X58637373Y-49356401D01*
X58666557Y-49333589D01*
X58678208Y-49325496D01*
X58702133Y-49310801D01*
X58709779Y-49306105D01*
X58721981Y-49292621D01*
X58737809Y-49277896D01*
X58745059Y-49272229D01*
X58745060Y-49272228D01*
X58752132Y-49266700D01*
X58773743Y-49236610D01*
X58782654Y-49225574D01*
X58801489Y-49204760D01*
X58801492Y-49204755D01*
X58807512Y-49198103D01*
X58815439Y-49181737D01*
X58826497Y-49163162D01*
X58831866Y-49155687D01*
X58831867Y-49155685D01*
X58837103Y-49148395D01*
X58849403Y-49113443D01*
X58854853Y-49100360D01*
X58871005Y-49067012D01*
X58882554Y-48998314D01*
X58882933Y-48996172D01*
X58890699Y-48954421D01*
X58940650Y-48685886D01*
X63885201Y-48685886D01*
X63886437Y-48693032D01*
X63886437Y-48693035D01*
X64172911Y-50349499D01*
X64264383Y-50878410D01*
X64351380Y-51330617D01*
X64529455Y-52256247D01*
X64548596Y-52355744D01*
X64838692Y-53432972D01*
X64840290Y-53436804D01*
X64840291Y-53436807D01*
X65008944Y-53841250D01*
X65189523Y-54274294D01*
X65191966Y-54278325D01*
X65191967Y-54278327D01*
X65251075Y-54375858D01*
X65655947Y-55043914D01*
X65707157Y-55099577D01*
X66179480Y-55612971D01*
X66179481Y-55612972D01*
X66191747Y-55626304D01*
X66260014Y-55576515D01*
X67049282Y-55000875D01*
X67050343Y-55002330D01*
X67050481Y-55002230D01*
X67049283Y-55000869D01*
X67789259Y-54349863D01*
X67789263Y-54349859D01*
X67789792Y-54349394D01*
X68446380Y-53745875D01*
X69392570Y-52867977D01*
X69395001Y-52865780D01*
X70378094Y-52000174D01*
X70380449Y-51998151D01*
X71385312Y-51156414D01*
X71387693Y-51154469D01*
X71717911Y-50891298D01*
X72397779Y-50349470D01*
X72400225Y-50347570D01*
X73399080Y-49592080D01*
X73401872Y-49590029D01*
X73441707Y-49561595D01*
X74372793Y-48896986D01*
X74376074Y-48894721D01*
X75302508Y-48276911D01*
X75306593Y-48274300D01*
X76064488Y-47810280D01*
X76173103Y-47743781D01*
X76175620Y-47742280D01*
X77533745Y-46953586D01*
X77549410Y-46944489D01*
X77555372Y-46924254D01*
X77635768Y-46651368D01*
X98373905Y-46651368D01*
X99355132Y-47320216D01*
X100510508Y-47996243D01*
X100516427Y-47999931D01*
X100934819Y-48276920D01*
X101633917Y-48739747D01*
X101639641Y-48743769D01*
X102693296Y-49528781D01*
X102699214Y-49533473D01*
X103660615Y-50343692D01*
X103665579Y-50348104D01*
X104648596Y-51269371D01*
X104651589Y-51272270D01*
X105561127Y-52182994D01*
X105632891Y-52254852D01*
X105635619Y-52257670D01*
X106525700Y-53206314D01*
X106538294Y-53219737D01*
X106541490Y-53223275D01*
X107288749Y-54082817D01*
X107293771Y-54088978D01*
X107570256Y-54450952D01*
X107812479Y-54768072D01*
X107813171Y-54768986D01*
X108289763Y-55404855D01*
X108429515Y-55591312D01*
X109034197Y-55808385D01*
X109050242Y-55805641D01*
X109050244Y-55805641D01*
X110165459Y-55614903D01*
X110165466Y-55614901D01*
X110168836Y-55614325D01*
X110172126Y-55613385D01*
X110172131Y-55613384D01*
X110476217Y-55526517D01*
X110906141Y-55403703D01*
X110909981Y-55402028D01*
X110909986Y-55402026D01*
X111636451Y-55085103D01*
X111636452Y-55085103D01*
X111639958Y-55083573D01*
X112372558Y-54651367D01*
X112375277Y-54649341D01*
X112375282Y-54649337D01*
X113103860Y-54106266D01*
X113103861Y-54106265D01*
X113106213Y-54104512D01*
X113843193Y-53440438D01*
X113850266Y-53432972D01*
X114584319Y-52658106D01*
X114584323Y-52658101D01*
X114585770Y-52656574D01*
X115336215Y-51750350D01*
X116096797Y-50719195D01*
X116207890Y-50552675D01*
X116869085Y-49561595D01*
X116869089Y-49561589D01*
X116869790Y-49560538D01*
X117298319Y-48859412D01*
X117656900Y-48272730D01*
X117656913Y-48272707D01*
X117657463Y-48271808D01*
X117918729Y-47810280D01*
X118461660Y-46851190D01*
X118461671Y-46851169D01*
X118462087Y-46850435D01*
X118753629Y-46299592D01*
X119284756Y-45296076D01*
X119284762Y-45296063D01*
X119285934Y-45293849D01*
X119535771Y-44713772D01*
X119765919Y-44179413D01*
X119765925Y-44179397D01*
X119766330Y-44178458D01*
X120061499Y-43423922D01*
X120052603Y-43419256D01*
X120052601Y-43419254D01*
X119813772Y-43293975D01*
X119812291Y-43293198D01*
X119307004Y-43060943D01*
X118854893Y-42853130D01*
X118854891Y-42853129D01*
X118852702Y-42852123D01*
X117708181Y-42428364D01*
X116432127Y-42034565D01*
X116430741Y-42034206D01*
X116430732Y-42034203D01*
X115079234Y-41683707D01*
X115079218Y-41683703D01*
X115077937Y-41683371D01*
X115062520Y-41680062D01*
X114775713Y-41618507D01*
X113699009Y-41387422D01*
X113697631Y-41387189D01*
X113697614Y-41387186D01*
X112350364Y-41159639D01*
X112350347Y-41159637D01*
X112348739Y-41159365D01*
X112347124Y-41159177D01*
X112347109Y-41159175D01*
X111082649Y-41012088D01*
X111082650Y-41012088D01*
X111080526Y-41011841D01*
X111078403Y-41011739D01*
X111078389Y-41011738D01*
X110284117Y-40973631D01*
X109947766Y-40957494D01*
X109945008Y-40957604D01*
X109945002Y-40957604D01*
X108845803Y-41001454D01*
X108736152Y-41005828D01*
X108733441Y-41006172D01*
X108733434Y-41006173D01*
X108063486Y-41091284D01*
X107538089Y-41158031D01*
X107535452Y-41158599D01*
X107535442Y-41158601D01*
X106911302Y-41293107D01*
X106357038Y-41412553D01*
X105689810Y-41616813D01*
X105198958Y-41767078D01*
X105198950Y-41767081D01*
X105196457Y-41767844D01*
X105194029Y-41768815D01*
X105194023Y-41768817D01*
X104062181Y-42221403D01*
X104062174Y-42221406D01*
X104059806Y-42222353D01*
X104057523Y-42223489D01*
X104057524Y-42223489D01*
X102952771Y-42773419D01*
X102952762Y-42773424D01*
X102950542Y-42774529D01*
X102856972Y-42830779D01*
X101874201Y-43421576D01*
X101874190Y-43421583D01*
X101872126Y-43422824D01*
X101870161Y-43424222D01*
X101870158Y-43424224D01*
X100853915Y-44147259D01*
X100828017Y-44165685D01*
X100826212Y-44167184D01*
X100826211Y-44167185D01*
X100734104Y-44243690D01*
X99821672Y-45001563D01*
X98856553Y-45928907D01*
X98373905Y-46651368D01*
X77635768Y-46651368D01*
X77738479Y-46302735D01*
X77739405Y-46299592D01*
X77867919Y-45603148D01*
X77871493Y-44777264D01*
X77752488Y-43852593D01*
X77744954Y-43794055D01*
X77744953Y-43794050D01*
X77744583Y-43791174D01*
X77743952Y-43788349D01*
X77743950Y-43788338D01*
X77501561Y-42703266D01*
X80684168Y-42703266D01*
X80684239Y-42706271D01*
X80711326Y-43852593D01*
X80711691Y-43868060D01*
X80712509Y-43872715D01*
X80712510Y-43872721D01*
X80764017Y-44165685D01*
X80871749Y-44778451D01*
X80876329Y-44787138D01*
X80876329Y-44787139D01*
X80929750Y-44888472D01*
X81173586Y-45350995D01*
X81384828Y-45562235D01*
X82566868Y-45130844D01*
X82570661Y-45129529D01*
X83133189Y-44944559D01*
X83743239Y-44743963D01*
X83748918Y-44742243D01*
X84908619Y-44420557D01*
X84919807Y-44417996D01*
X85400829Y-44330755D01*
X85774423Y-44262998D01*
X85782279Y-44261827D01*
X86895185Y-44131738D01*
X86900966Y-44131197D01*
X88094889Y-44047153D01*
X88097949Y-44046975D01*
X89815766Y-43967985D01*
X90103380Y-43954760D01*
X90130848Y-43956506D01*
X90580712Y-44035089D01*
X91558357Y-44205865D01*
X91562918Y-44206749D01*
X92857840Y-44482497D01*
X92865946Y-44484506D01*
X93458148Y-44652302D01*
X93959895Y-44794468D01*
X93967285Y-44796811D01*
X94923189Y-45132649D01*
X95066267Y-44970407D01*
X95133089Y-44894634D01*
X95133089Y-44894633D01*
X95138523Y-44888472D01*
X95198154Y-44768779D01*
X95329105Y-44505926D01*
X95458034Y-44247134D01*
X95897920Y-43027390D01*
X96365679Y-41508360D01*
X96768808Y-39969164D01*
X96774119Y-39946419D01*
X97101792Y-38542902D01*
X97152613Y-38325222D01*
X97072514Y-36721458D01*
X97008342Y-35657257D01*
X96998486Y-35493810D01*
X96998485Y-35493792D01*
X96998418Y-35492688D01*
X96896605Y-34445768D01*
X96743772Y-33454895D01*
X96702067Y-33260161D01*
X96516893Y-32395543D01*
X96516892Y-32395539D01*
X96516619Y-32394264D01*
X96370728Y-31829978D01*
X96192008Y-31138709D01*
X96191997Y-31138667D01*
X96191842Y-31138069D01*
X95746141Y-29560507D01*
X95734541Y-29527288D01*
X95407037Y-28589478D01*
X95293089Y-28263185D01*
X94779290Y-27163753D01*
X94673011Y-27019131D01*
X94369147Y-26605640D01*
X94369146Y-26605639D01*
X94358418Y-26591041D01*
X94342878Y-26593059D01*
X93978819Y-26640338D01*
X93863900Y-26655262D01*
X92897847Y-27018186D01*
X92895794Y-27019131D01*
X91669780Y-27583385D01*
X91669771Y-27583389D01*
X91668327Y-27584054D01*
X90383408Y-28257105D01*
X90381756Y-28258104D01*
X90381743Y-28258111D01*
X89575000Y-28745809D01*
X89251160Y-28941579D01*
X88197977Y-29658599D01*
X87336576Y-30285761D01*
X87335426Y-30286684D01*
X87335410Y-30286696D01*
X87048808Y-30516666D01*
X86561521Y-30907666D01*
X86301307Y-31137441D01*
X85859770Y-31527329D01*
X85767378Y-31608913D01*
X85766665Y-31609585D01*
X85766648Y-31609600D01*
X84850144Y-32472757D01*
X84848714Y-32474104D01*
X84117578Y-33253935D01*
X84116083Y-33255795D01*
X83560166Y-33947435D01*
X83373547Y-34179615D01*
X82707700Y-35129950D01*
X82211115Y-35983748D01*
X81714592Y-37168914D01*
X81620647Y-37477634D01*
X81315030Y-38481942D01*
X81304394Y-38516892D01*
X81303866Y-38519289D01*
X81303863Y-38519299D01*
X81142024Y-39253494D01*
X80989762Y-39944239D01*
X80937368Y-40299643D01*
X80780284Y-41365174D01*
X80780282Y-41365188D01*
X80779940Y-41367511D01*
X80779771Y-41369865D01*
X80779770Y-41369876D01*
X80685898Y-42679132D01*
X80684168Y-42703266D01*
X77501561Y-42703266D01*
X77482074Y-42616033D01*
X77481644Y-42614108D01*
X77444775Y-42486613D01*
X77077499Y-41216575D01*
X77077130Y-41215299D01*
X76595864Y-39774624D01*
X76525670Y-39564498D01*
X76525659Y-39564466D01*
X76525496Y-39563978D01*
X75604313Y-36937481D01*
X75579724Y-36896777D01*
X74826656Y-35650203D01*
X74662243Y-35378046D01*
X74358326Y-34905350D01*
X74101879Y-34506488D01*
X74101004Y-34505127D01*
X74057194Y-34443999D01*
X73536601Y-33717611D01*
X73536598Y-33717607D01*
X73535224Y-33715690D01*
X73192120Y-33305769D01*
X73089104Y-33182691D01*
X73089096Y-33182682D01*
X73087390Y-33180644D01*
X73085518Y-33178756D01*
X73085511Y-33178749D01*
X72467365Y-32555538D01*
X72467364Y-32555537D01*
X72454607Y-32542676D01*
X71903649Y-32962833D01*
X71902789Y-32963536D01*
X71192509Y-33544127D01*
X70982526Y-33715769D01*
X70100091Y-34537470D01*
X69260316Y-35420817D01*
X68467175Y-36358691D01*
X67724640Y-37343974D01*
X67723662Y-37345432D01*
X67037638Y-38368124D01*
X67037629Y-38368138D01*
X67036684Y-38369547D01*
X67035816Y-38371007D01*
X67035811Y-38371015D01*
X66871950Y-38646652D01*
X66407281Y-39428290D01*
X66406496Y-39429793D01*
X66406490Y-39429803D01*
X66214038Y-39798085D01*
X65840403Y-40513085D01*
X65839680Y-40514681D01*
X65839677Y-40514686D01*
X65617065Y-41005719D01*
X65340022Y-41616813D01*
X65339371Y-41618502D01*
X65339369Y-41618507D01*
X64910805Y-42730558D01*
X64910800Y-42730573D01*
X64910113Y-42732355D01*
X64909536Y-42734174D01*
X64909533Y-42734182D01*
X64798434Y-43084308D01*
X64554648Y-43852593D01*
X64416076Y-44411691D01*
X64292732Y-44909351D01*
X64277599Y-44970407D01*
X64277221Y-44972558D01*
X64277221Y-44972559D01*
X64096230Y-46003020D01*
X64082941Y-46078679D01*
X63974645Y-47170290D01*
X63972982Y-47198464D01*
X63885836Y-48675133D01*
X63885201Y-48685886D01*
X58940650Y-48685886D01*
X59033142Y-48188645D01*
X59034889Y-48180691D01*
X59053175Y-48108655D01*
X59311691Y-47090255D01*
X59316122Y-47076272D01*
X59350422Y-46986545D01*
X59613017Y-46299592D01*
X59723859Y-46009629D01*
X59729636Y-45996735D01*
X60002317Y-45469513D01*
X60243969Y-45002284D01*
X60252037Y-44988816D01*
X60263208Y-44972559D01*
X60848353Y-44120975D01*
X60855938Y-44111033D01*
X61966958Y-42795871D01*
X61996321Y-42770404D01*
X62177066Y-42657186D01*
X62245413Y-42637975D01*
X62313297Y-42658766D01*
X62320900Y-42664193D01*
X62391302Y-42718494D01*
X62399113Y-42725192D01*
X62404047Y-42731447D01*
X62411360Y-42736650D01*
X62411362Y-42736652D01*
X62454260Y-42767174D01*
X62458166Y-42770068D01*
X62465618Y-42775815D01*
X62476554Y-42784250D01*
X62480464Y-42786462D01*
X62483723Y-42788624D01*
X62490197Y-42792743D01*
X62495239Y-42796330D01*
X62499592Y-42798508D01*
X62515527Y-42806481D01*
X62521180Y-42809491D01*
X62528095Y-42813402D01*
X62571231Y-42837801D01*
X62579971Y-42839850D01*
X62584850Y-42841756D01*
X62595374Y-42846433D01*
X62893004Y-42995355D01*
X62903790Y-43001432D01*
X62910627Y-43007244D01*
X62918824Y-43010905D01*
X62965265Y-43031647D01*
X62970248Y-43034005D01*
X62989621Y-43043698D01*
X62994082Y-43045185D01*
X63005633Y-43049676D01*
X63043623Y-43066643D01*
X63057101Y-43068481D01*
X63079908Y-43073788D01*
X63092813Y-43078089D01*
X63101786Y-43078423D01*
X63134395Y-43079637D01*
X63146723Y-43080704D01*
X63187945Y-43086326D01*
X63201396Y-43084308D01*
X63224774Y-43083000D01*
X63238370Y-43083506D01*
X63247070Y-43081310D01*
X63247077Y-43081309D01*
X63278714Y-43073322D01*
X63290853Y-43070885D01*
X63311045Y-43067855D01*
X63323115Y-43066044D01*
X63323116Y-43066044D01*
X63331990Y-43064712D01*
X63340132Y-43060944D01*
X63340136Y-43060943D01*
X63344330Y-43059002D01*
X63366406Y-43051184D01*
X63366920Y-43051054D01*
X63379596Y-43047854D01*
X63415459Y-43026756D01*
X63426432Y-43021007D01*
X63456033Y-43007309D01*
X63456037Y-43007307D01*
X63464178Y-43003539D01*
X63470937Y-42997636D01*
X63474420Y-42994594D01*
X63493409Y-42980898D01*
X63497402Y-42978549D01*
X63497403Y-42978548D01*
X63505141Y-42973996D01*
X63533647Y-42943673D01*
X63542553Y-42935087D01*
X63573885Y-42907723D01*
X63578789Y-42900045D01*
X63581207Y-42896260D01*
X63595591Y-42877782D01*
X63598757Y-42874414D01*
X63604908Y-42867871D01*
X63623753Y-42830778D01*
X63629892Y-42820035D01*
X63631507Y-42817506D01*
X63631508Y-42817505D01*
X63634128Y-42813402D01*
X63642605Y-42794106D01*
X63645626Y-42787722D01*
X63662935Y-42753651D01*
X63670881Y-42738010D01*
X63672537Y-42729186D01*
X63675427Y-42720689D01*
X63676126Y-42720927D01*
X63679403Y-42710344D01*
X63953282Y-42086916D01*
X64132021Y-41680056D01*
X64135519Y-41673194D01*
X64135509Y-41673189D01*
X64137632Y-41668810D01*
X64140088Y-41664606D01*
X64149988Y-41639400D01*
X64151894Y-41634817D01*
X64158157Y-41620563D01*
X64161510Y-41612930D01*
X64162710Y-41608623D01*
X64163330Y-41606886D01*
X64166620Y-41597057D01*
X64578030Y-40549603D01*
X64581166Y-40542304D01*
X64695535Y-40297669D01*
X65024007Y-39595063D01*
X65066414Y-39504355D01*
X65069926Y-39497409D01*
X65603130Y-38519299D01*
X65623496Y-38481940D01*
X65627335Y-38475377D01*
X66248273Y-37483797D01*
X66252390Y-37477634D01*
X66665583Y-36896777D01*
X66939762Y-36511343D01*
X66944087Y-36505618D01*
X67629526Y-35650203D01*
X67696936Y-35566077D01*
X67701464Y-35560737D01*
X68518828Y-34649427D01*
X68523498Y-34644494D01*
X69404391Y-33762930D01*
X69409164Y-33758396D01*
X70352615Y-32908085D01*
X70357460Y-32903936D01*
X71142005Y-32265745D01*
X71362390Y-32086472D01*
X71367271Y-32082697D01*
X71378122Y-32074722D01*
X72379714Y-31338538D01*
X72407522Y-31323083D01*
X72908775Y-31122488D01*
X72979451Y-31115749D01*
X72999798Y-31121479D01*
X73365696Y-31258577D01*
X73416613Y-31293941D01*
X74090110Y-32069330D01*
X74098836Y-32080606D01*
X74212757Y-32246420D01*
X74218698Y-32256078D01*
X74221677Y-32264022D01*
X74227057Y-32271199D01*
X74227059Y-32271202D01*
X74258094Y-32312599D01*
X74261129Y-32316827D01*
X74273821Y-32335300D01*
X74276862Y-32338602D01*
X74277782Y-32339756D01*
X74284588Y-32347939D01*
X74303661Y-32373381D01*
X74303663Y-32373383D01*
X74309048Y-32380566D01*
X74316233Y-32385949D01*
X74320592Y-32389215D01*
X74337725Y-32404697D01*
X74347503Y-32415315D01*
X74355190Y-32419944D01*
X74355193Y-32419947D01*
X74382440Y-32436356D01*
X74392978Y-32443450D01*
X74425616Y-32467905D01*
X74439129Y-32472968D01*
X74459917Y-32483018D01*
X74472279Y-32490463D01*
X74508507Y-32500007D01*
X74511718Y-32500853D01*
X74523822Y-32504704D01*
X74562012Y-32519015D01*
X74570963Y-32519679D01*
X74576397Y-32520082D01*
X74599177Y-32523895D01*
X74604444Y-32525283D01*
X74604453Y-32525284D01*
X74613130Y-32527570D01*
X74622103Y-32527329D01*
X74622105Y-32527329D01*
X74640863Y-32526824D01*
X74653896Y-32526474D01*
X74666595Y-32526773D01*
X74707271Y-32529790D01*
X74721382Y-32526776D01*
X74744313Y-32524043D01*
X74758735Y-32523655D01*
X74797559Y-32511160D01*
X74809839Y-32507881D01*
X74840933Y-32501239D01*
X74840935Y-32501238D01*
X74849714Y-32499363D01*
X74862413Y-32492509D01*
X74883645Y-32483453D01*
X74888843Y-32481780D01*
X74888845Y-32481779D01*
X74897389Y-32479029D01*
X74924462Y-32460671D01*
X74931144Y-32456140D01*
X74942006Y-32449548D01*
X74977893Y-32430179D01*
X74988160Y-32420034D01*
X75005998Y-32405382D01*
X75017944Y-32397282D01*
X75043920Y-32365837D01*
X75052497Y-32356462D01*
X75054036Y-32354941D01*
X75054037Y-32354940D01*
X75057503Y-32351515D01*
X75070514Y-32333927D01*
X75074654Y-32328632D01*
X75110710Y-32284985D01*
X75114253Y-32276742D01*
X75118129Y-32270394D01*
X75124369Y-32261125D01*
X75256803Y-32082101D01*
X75780641Y-31373975D01*
X75783558Y-31370185D01*
X75808887Y-31338538D01*
X75995524Y-31105341D01*
X77237888Y-31105341D01*
X77237983Y-31108971D01*
X77237983Y-31108972D01*
X77245394Y-31392004D01*
X77246970Y-31452171D01*
X77295856Y-31795660D01*
X77383897Y-32131253D01*
X77509927Y-32454503D01*
X77511624Y-32457708D01*
X77645113Y-32709825D01*
X77672275Y-32761126D01*
X77674325Y-32764109D01*
X77674327Y-32764112D01*
X77866733Y-33044064D01*
X77866739Y-33044071D01*
X77868790Y-33047056D01*
X78096866Y-33308505D01*
X78099551Y-33310948D01*
X78309268Y-33501775D01*
X78353481Y-33542006D01*
X78635233Y-33744466D01*
X78938388Y-33913200D01*
X79258928Y-34045972D01*
X79262422Y-34046967D01*
X79262424Y-34046968D01*
X79589103Y-34140025D01*
X79589108Y-34140026D01*
X79592604Y-34141022D01*
X79789304Y-34173233D01*
X79931412Y-34196504D01*
X79931419Y-34196505D01*
X79934993Y-34197090D01*
X80108275Y-34205262D01*
X80277931Y-34213263D01*
X80277932Y-34213263D01*
X80281558Y-34213434D01*
X80290415Y-34212830D01*
X80624073Y-34190084D01*
X80624081Y-34190083D01*
X80627704Y-34189836D01*
X80631279Y-34189173D01*
X80631282Y-34189173D01*
X80965279Y-34127270D01*
X80965283Y-34127269D01*
X80968844Y-34126609D01*
X81300456Y-34024592D01*
X81618145Y-33885136D01*
X81827277Y-33762930D01*
X81914560Y-33711926D01*
X81914562Y-33711925D01*
X81917700Y-33710091D01*
X81920609Y-33707907D01*
X82192244Y-33503958D01*
X82192248Y-33503955D01*
X82195151Y-33501775D01*
X82446819Y-33262950D01*
X82669370Y-32996783D01*
X82727634Y-32908085D01*
X82764612Y-32851791D01*
X82859853Y-32706799D01*
X82953762Y-32520082D01*
X83014117Y-32400080D01*
X83014120Y-32400072D01*
X83015744Y-32396844D01*
X83038266Y-32335300D01*
X83133729Y-32074437D01*
X83133730Y-32074433D01*
X83134977Y-32071026D01*
X83135822Y-32067504D01*
X83135825Y-32067496D01*
X83215124Y-31737191D01*
X83215125Y-31737187D01*
X83215971Y-31733662D01*
X83220562Y-31695725D01*
X83257316Y-31392004D01*
X83257316Y-31391997D01*
X83257652Y-31389225D01*
X83258251Y-31370185D01*
X83263511Y-31202797D01*
X83263599Y-31200000D01*
X83263352Y-31195717D01*
X83243836Y-30857246D01*
X83243835Y-30857241D01*
X83243627Y-30853626D01*
X83222981Y-30735328D01*
X83184600Y-30515415D01*
X83184598Y-30515408D01*
X83183976Y-30511842D01*
X83180342Y-30499571D01*
X83132677Y-30338661D01*
X83085437Y-30179180D01*
X83084013Y-30175841D01*
X82950740Y-29863386D01*
X82950738Y-29863383D01*
X82949316Y-29860048D01*
X82899569Y-29772831D01*
X82779208Y-29561816D01*
X82777417Y-29558676D01*
X82736108Y-29502440D01*
X82605691Y-29324900D01*
X82572018Y-29279060D01*
X82335842Y-29024904D01*
X82072019Y-28799578D01*
X81784047Y-28606069D01*
X81698964Y-28562154D01*
X81478961Y-28448602D01*
X81475741Y-28446940D01*
X81151189Y-28324302D01*
X81147668Y-28323418D01*
X81147663Y-28323416D01*
X80966562Y-28277927D01*
X80814692Y-28239780D01*
X80792476Y-28236855D01*
X80474315Y-28194968D01*
X80474307Y-28194967D01*
X80470711Y-28194494D01*
X80326045Y-28192221D01*
X80127446Y-28189101D01*
X80127442Y-28189101D01*
X80123804Y-28189044D01*
X80120190Y-28189405D01*
X80120184Y-28189405D01*
X79876843Y-28213694D01*
X79778569Y-28223503D01*
X79439583Y-28297414D01*
X79436156Y-28298587D01*
X79436150Y-28298589D01*
X79357296Y-28325587D01*
X79111339Y-28409797D01*
X78798188Y-28559163D01*
X78504279Y-28743532D01*
X78501443Y-28745804D01*
X78501436Y-28745809D01*
X78258179Y-28940695D01*
X78233509Y-28960459D01*
X77989466Y-29207071D01*
X77987225Y-29209929D01*
X77896888Y-29325141D01*
X77775386Y-29480098D01*
X77773493Y-29483187D01*
X77773491Y-29483190D01*
X77728013Y-29557403D01*
X77594105Y-29775921D01*
X77592580Y-29779206D01*
X77592578Y-29779210D01*
X77553505Y-29863386D01*
X77448027Y-30090620D01*
X77391716Y-30260888D01*
X77346808Y-30396678D01*
X77339087Y-30420023D01*
X77338351Y-30423578D01*
X77338350Y-30423581D01*
X77272406Y-30742012D01*
X77268730Y-30759764D01*
X77255530Y-30907666D01*
X77241509Y-31064774D01*
X77237888Y-31105341D01*
X75995524Y-31105341D01*
X76533736Y-30432864D01*
X76605004Y-30343817D01*
X76609362Y-30338661D01*
X77571892Y-29259930D01*
X77576067Y-29255473D01*
X78506260Y-28309543D01*
X78513347Y-28302873D01*
X79216272Y-27690665D01*
X79233375Y-27678134D01*
X79442062Y-27550744D01*
X80124361Y-27134243D01*
X80131105Y-27130406D01*
X80341511Y-27019131D01*
X81472943Y-26420763D01*
X81477492Y-26418474D01*
X82730422Y-25819430D01*
X82741731Y-25814684D01*
X83106968Y-25681935D01*
X83177824Y-25677464D01*
X83226212Y-25700010D01*
X83302171Y-25757694D01*
X83336753Y-25798017D01*
X83735288Y-26533621D01*
X83749972Y-26560724D01*
X83758029Y-26578884D01*
X84195039Y-27819548D01*
X84199031Y-27833346D01*
X84398975Y-28708522D01*
X84529619Y-29280365D01*
X84537543Y-29315051D01*
X84538944Y-29322105D01*
X84629881Y-29860048D01*
X84707330Y-30318199D01*
X84708766Y-30330134D01*
X84711857Y-30372976D01*
X84714991Y-30381390D01*
X84714991Y-30381392D01*
X84732085Y-30427291D01*
X84734014Y-30432864D01*
X84748904Y-30479395D01*
X84751690Y-30488102D01*
X84756718Y-30495544D01*
X84757465Y-30497082D01*
X84758014Y-30498366D01*
X84758747Y-30499571D01*
X84759559Y-30501062D01*
X84762692Y-30509475D01*
X84797371Y-30555956D01*
X84800769Y-30560741D01*
X84833236Y-30608793D01*
X84840144Y-30614519D01*
X84841292Y-30615785D01*
X84842185Y-30616870D01*
X84843222Y-30617816D01*
X84844427Y-30619026D01*
X84849794Y-30626220D01*
X84856963Y-30631617D01*
X84856965Y-30631619D01*
X84896121Y-30661097D01*
X84900738Y-30664745D01*
X84945378Y-30701746D01*
X84953619Y-30705304D01*
X84955085Y-30706203D01*
X84956236Y-30706986D01*
X84957499Y-30707605D01*
X84958989Y-30708425D01*
X84966162Y-30713825D01*
X84974563Y-30716995D01*
X85020380Y-30734284D01*
X85025847Y-30736494D01*
X85079101Y-30759490D01*
X85088013Y-30760593D01*
X85089670Y-30761043D01*
X85090993Y-30761471D01*
X85092394Y-30761713D01*
X85094038Y-30762078D01*
X85102440Y-30765249D01*
X85111394Y-30765934D01*
X85111395Y-30765934D01*
X85131685Y-30767486D01*
X85160239Y-30769670D01*
X85166090Y-30770255D01*
X85223656Y-30777379D01*
X85232517Y-30775937D01*
X85234229Y-30775904D01*
X85235627Y-30775944D01*
X85237018Y-30775785D01*
X85238723Y-30775672D01*
X85247673Y-30776357D01*
X85304419Y-30764372D01*
X85310186Y-30763294D01*
X85367422Y-30753978D01*
X85375525Y-30750105D01*
X85377143Y-30749598D01*
X85378508Y-30749241D01*
X85379803Y-30748696D01*
X85381400Y-30748112D01*
X85390186Y-30746257D01*
X85398093Y-30742013D01*
X85398095Y-30742012D01*
X85441290Y-30718826D01*
X85446537Y-30716166D01*
X85498841Y-30691167D01*
X85533781Y-30659877D01*
X85541853Y-30653233D01*
X86425085Y-29985826D01*
X86425343Y-29985646D01*
X86425675Y-29985467D01*
X86456867Y-29961810D01*
X86485652Y-29940059D01*
X86485918Y-29939790D01*
X86486159Y-29939594D01*
X86979551Y-29565393D01*
X87296331Y-29325139D01*
X87296759Y-29324839D01*
X87297296Y-29324547D01*
X87328345Y-29300858D01*
X87356724Y-29279335D01*
X87357152Y-29278902D01*
X87357546Y-29278579D01*
X88103347Y-28709576D01*
X88104749Y-28708522D01*
X88245240Y-28604408D01*
X89064778Y-27997071D01*
X89070795Y-27992878D01*
X89188541Y-27915818D01*
X89551715Y-27678134D01*
X89909092Y-27444244D01*
X89915404Y-27440373D01*
X90939200Y-26853194D01*
X90942488Y-26851372D01*
X90961183Y-26841379D01*
X91647910Y-26474294D01*
X92441654Y-26050004D01*
X92449427Y-26046187D01*
X93411931Y-25613865D01*
X93426714Y-25608310D01*
X94283679Y-25346280D01*
X94289868Y-25344559D01*
X94884499Y-25195413D01*
X94955439Y-25198241D01*
G37*
%TD.AperFunction*%
M02*
