%TF.GenerationSoftware,KiCad,Pcbnew,6.0.7-f9a2dced07~116~ubuntu20.04.1*%
%TF.CreationDate,2022-09-11T18:48:07+02:00*%
%TF.ProjectId,demoDino,64656d6f-4469-46e6-9f2e-6b696361645f,rev?*%
%TF.SameCoordinates,Original*%
%TF.FileFunction,Profile,NP*%
%FSLAX46Y46*%
G04 Gerber Fmt 4.6, Leading zero omitted, Abs format (unit mm)*
G04 Created by KiCad (PCBNEW 6.0.7-f9a2dced07~116~ubuntu20.04.1) date 2022-09-11 18:48:07*
%MOMM*%
%LPD*%
G01*
G04 APERTURE LIST*
%TA.AperFunction,Profile*%
%ADD10C,0.000010*%
%TD*%
G04 APERTURE END LIST*
%TO.C,svg2mod*%
D10*
X95338331Y-24815490D02*
X95698250Y-25330553D01*
X96159305Y-26265536D01*
X96612977Y-27377581D01*
X96950741Y-28423832D01*
X97216793Y-29386791D01*
X97452366Y-30156209D01*
X97827180Y-31389448D01*
X97988795Y-31991770D01*
X98857781Y-31639328D01*
X99674112Y-31346092D01*
X100575456Y-31098572D01*
X101590599Y-30890041D01*
X102748325Y-30713777D01*
X103976591Y-30552785D01*
X106124192Y-30778422D01*
X107825303Y-30979717D01*
X108921977Y-31213713D01*
X109589286Y-31575247D01*
X110002302Y-32159159D01*
X110336099Y-33060287D01*
X110634324Y-34289028D01*
X110791426Y-35618819D01*
X110798875Y-36913460D01*
X110648139Y-38036752D01*
X110536703Y-38957731D01*
X111251083Y-39087243D01*
X112068168Y-39146317D01*
X113101838Y-39304902D01*
X114202191Y-39535697D01*
X115219327Y-39811399D01*
X116592249Y-40265058D01*
X117947034Y-40756926D01*
X119178397Y-41245240D01*
X120181053Y-41688238D01*
X120849717Y-42044157D01*
X121558264Y-42461417D01*
X122099735Y-42721071D01*
X122497273Y-43093437D01*
X122076760Y-43892771D01*
X121601026Y-44646451D01*
X120900364Y-45860557D01*
X120164630Y-47191679D01*
X119583675Y-48296404D01*
X119347352Y-48831321D01*
X120320762Y-49317406D01*
X121465885Y-49801288D01*
X122664462Y-50450848D01*
X123840416Y-51208927D01*
X124917673Y-52018364D01*
X125820157Y-52822000D01*
X126471793Y-53562674D01*
X126796507Y-54183228D01*
X126693475Y-54996356D01*
X126230380Y-56204382D01*
X125557426Y-57479049D01*
X124824812Y-58492104D01*
X124254191Y-59185801D01*
X124628111Y-59589014D01*
X125585902Y-60306486D01*
X126881605Y-61173613D01*
X128269263Y-62025792D01*
X129502916Y-62698418D01*
X130552687Y-63243676D01*
X130890339Y-63690302D01*
X130502892Y-64320230D01*
X129377362Y-65415397D01*
X127674193Y-67030914D01*
X128416378Y-67507054D01*
X129315136Y-68244791D01*
X130129212Y-69172635D01*
X130688416Y-70065036D01*
X130822555Y-70696443D01*
X130375009Y-71410031D01*
X130128207Y-71776145D01*
X130536746Y-72029693D01*
X132032181Y-72438765D01*
X133415754Y-72862519D01*
X134168594Y-73211404D01*
X134516676Y-73512877D01*
X134204644Y-74522964D01*
X133747322Y-75755588D01*
X133183603Y-76861469D01*
X132525000Y-77775000D01*
X131725000Y-78500000D01*
X130875000Y-79175000D01*
X130225000Y-79500000D01*
X129315199Y-79889789D01*
X128628044Y-80075569D01*
X129238096Y-80484653D01*
X130100000Y-80625000D01*
X130888443Y-80534199D01*
X131743122Y-79960320D01*
X132606202Y-79310284D01*
X133375000Y-78875000D01*
X134358152Y-78815055D01*
X135524177Y-78853291D01*
X136838610Y-79019853D01*
X137984593Y-79262103D01*
X138645268Y-79527399D01*
X138867183Y-79710768D01*
X138770834Y-80797933D01*
X138659820Y-81728883D01*
X138527785Y-82440801D01*
X138429340Y-82916326D01*
X138786760Y-83125557D01*
X140029561Y-83320354D01*
X141536729Y-83611749D01*
X142687033Y-83981065D01*
X143464974Y-84419569D01*
X143855055Y-84918524D01*
X143841778Y-85469197D01*
X143214947Y-86025130D01*
X141999414Y-86845378D01*
X140882998Y-87465751D01*
X140000217Y-87825763D01*
X139102223Y-88136284D01*
X138151158Y-88405941D01*
X137109164Y-88643362D01*
X135938382Y-88857173D01*
X134600954Y-89056003D01*
X133059022Y-89248477D01*
X131728755Y-89405294D01*
X130400853Y-89566193D01*
X129229246Y-89712287D01*
X128367867Y-89824693D01*
X126880558Y-90019745D01*
X125417963Y-90196217D01*
X123982012Y-90354012D01*
X122574635Y-90493034D01*
X121197760Y-90613188D01*
X119853317Y-90714377D01*
X118543236Y-90796506D01*
X117269445Y-90859479D01*
X116033876Y-90903198D01*
X114838456Y-90927570D01*
X113685116Y-90932496D01*
X112575784Y-90917883D01*
X111512391Y-90883632D01*
X110496866Y-90829649D01*
X109531137Y-90755838D01*
X108418171Y-90662643D01*
X107095971Y-90560546D01*
X105850692Y-90471770D01*
X104257951Y-90346895D01*
X103266111Y-90237430D01*
X102701705Y-90139217D01*
X102801157Y-92074233D01*
X102888962Y-93254198D01*
X103034142Y-94691168D01*
X103210322Y-96164719D01*
X103391125Y-97454431D01*
X103550176Y-98339881D01*
X103674012Y-99253365D01*
X103762188Y-100565088D01*
X103798124Y-101918970D01*
X103765246Y-102958931D01*
X103655221Y-104113229D01*
X103137434Y-104891461D01*
X102605693Y-105601171D01*
X102024145Y-106148200D01*
X101317861Y-106556929D01*
X100411906Y-106851734D01*
X99231350Y-107056996D01*
X97701260Y-107197092D01*
X95746705Y-107296401D01*
X93581700Y-107382177D01*
X93191962Y-107167728D01*
X92254975Y-106506829D01*
X91679432Y-105722154D01*
X91401776Y-104727358D01*
X91319729Y-104113225D01*
X91909620Y-102265853D01*
X92223417Y-101065836D01*
X92361271Y-99950925D01*
X92318639Y-98885489D01*
X92090977Y-97833898D01*
X91673742Y-96760524D01*
X91062390Y-95629736D01*
X90290724Y-94447515D01*
X89927700Y-94425142D01*
X89686807Y-95545200D01*
X89537617Y-96360726D01*
X89335954Y-97338898D01*
X89125508Y-98267773D01*
X88819737Y-99621813D01*
X88595912Y-100749168D01*
X88371810Y-101604721D01*
X88057613Y-102290716D01*
X87684659Y-102865689D01*
X86591278Y-103295210D01*
X85501326Y-103643588D01*
X84415706Y-103878263D01*
X83302470Y-104035472D01*
X82146273Y-104197760D01*
X80741068Y-104269310D01*
X79660196Y-104041608D01*
X78896726Y-103509852D01*
X78443727Y-102669240D01*
X78294268Y-101514970D01*
X78362501Y-100736252D01*
X78705616Y-99915633D01*
X79531236Y-98556813D01*
X80034470Y-97625495D01*
X80443063Y-96562570D01*
X80761838Y-95349741D01*
X80995622Y-93968712D01*
X81149239Y-92401187D01*
X81220725Y-91370588D01*
X78668468Y-91307186D01*
X77353086Y-91266694D01*
X76358187Y-91222009D01*
X75899276Y-91182867D01*
X75747607Y-91338887D01*
X75785651Y-92187995D01*
X75786772Y-93925331D01*
X75798075Y-95367186D01*
X75861792Y-96616203D01*
X75974493Y-97606398D01*
X76166434Y-99341628D01*
X76073331Y-100599092D01*
X75670050Y-101487932D01*
X74931462Y-102117292D01*
X74115867Y-102504641D01*
X72974652Y-102930644D01*
X71650688Y-103355182D01*
X70286842Y-103738136D01*
X69025985Y-104039386D01*
X68010985Y-104218813D01*
X67384713Y-104236300D01*
X66929086Y-104145545D01*
X66493971Y-104673898D01*
X66037930Y-105131767D01*
X65464451Y-105482608D01*
X64681662Y-105749798D01*
X63597690Y-105956709D01*
X62120662Y-106126718D01*
X60158704Y-106283200D01*
X56918345Y-106511946D01*
X56052467Y-106349089D01*
X54869364Y-105947097D01*
X53886433Y-105253548D01*
X53191279Y-104330157D01*
X52784136Y-103535763D01*
X52877382Y-102669886D01*
X53069304Y-101796762D01*
X53456328Y-100914557D01*
X54036234Y-100027200D01*
X54806803Y-99138621D01*
X55597615Y-98258484D01*
X56324248Y-97309568D01*
X56984355Y-96297991D01*
X57575589Y-95229873D01*
X58095604Y-94111330D01*
X58542055Y-92948481D01*
X58912594Y-91747444D01*
X59204875Y-90514338D01*
X59416553Y-89255280D01*
X59545280Y-87976388D01*
X59588710Y-86683780D01*
X59588710Y-85187609D01*
X58542571Y-84679146D01*
X57797857Y-84302581D01*
X56851450Y-83803753D01*
X55908264Y-83290510D01*
X54894722Y-82749554D01*
X53908744Y-82277009D01*
X52833741Y-81823758D01*
X51553124Y-81340680D01*
X49950305Y-80778656D01*
X47889727Y-80072528D01*
X45502192Y-79715734D01*
X44084817Y-79527146D01*
X42935232Y-79439596D01*
X41925515Y-79455043D01*
X40927746Y-79575445D01*
X39814002Y-79802760D01*
X37938245Y-80230524D01*
X36373303Y-80570899D01*
X35065269Y-80834166D01*
X33960237Y-81030606D01*
X33004302Y-81170498D01*
X32143557Y-81264123D01*
X30270700Y-81430710D01*
X28819283Y-81260394D01*
X27375611Y-81008978D01*
X26385636Y-80600930D01*
X25615597Y-79940132D01*
X25058029Y-79321027D01*
X25125786Y-78611790D01*
X25194156Y-77902554D01*
X24911953Y-77704887D01*
X24264876Y-76970787D01*
X23900002Y-76433731D01*
X23970237Y-75456589D01*
X24039858Y-74479446D01*
X24535266Y-73670133D01*
X25078010Y-72952758D01*
X25772744Y-72320851D01*
X26608947Y-71782552D01*
X27576095Y-71346000D01*
X28722888Y-70891690D01*
X29923302Y-70366079D01*
X31140999Y-69788335D01*
X32339639Y-69177626D01*
X33482883Y-68553118D01*
X34534391Y-67933981D01*
X35457825Y-67339382D01*
X36216846Y-66788487D01*
X36902099Y-66328932D01*
X37823661Y-65794562D01*
X38913312Y-65206536D01*
X38974850Y-64360549D01*
X39152391Y-63411159D01*
X39545233Y-62479707D01*
X40151401Y-61569963D01*
X40968918Y-60685697D01*
X41930078Y-59899732D01*
X42657750Y-59641883D01*
X43256302Y-59913246D01*
X43830106Y-60714914D01*
X44323195Y-61273545D01*
X45134205Y-60759673D01*
X45896498Y-60252272D01*
X46788883Y-59812988D01*
X47774107Y-59422006D01*
X47979854Y-59592322D01*
X48185601Y-60026194D01*
X48840137Y-60011892D01*
X49445039Y-59605976D01*
X49865765Y-59760768D01*
X50152940Y-58708413D01*
X50372263Y-57602592D01*
X50710766Y-56461647D01*
X51158057Y-55302967D01*
X51703741Y-54143941D01*
X52337427Y-53001956D01*
X53048720Y-51894403D01*
X53827227Y-50838668D01*
X54662555Y-49852142D01*
X55544310Y-48952212D01*
X56462099Y-48156267D01*
X57365654Y-47644733D01*
X57974432Y-48256970D01*
X58381575Y-48910885D01*
X58536973Y-48075465D01*
X58827926Y-46929282D01*
X59261603Y-45794776D01*
X59810502Y-44733496D01*
X60447126Y-43806992D01*
X61642436Y-42392052D01*
X62281590Y-41991689D01*
X62758205Y-42359305D01*
X63184506Y-42572609D01*
X63681269Y-41441835D01*
X64112045Y-40345077D01*
X64614082Y-39271217D01*
X65186195Y-38221734D01*
X65827200Y-37198108D01*
X66535911Y-36201819D01*
X67311142Y-35234344D01*
X68151709Y-34297165D01*
X69056426Y-33391760D01*
X70024108Y-32519609D01*
X71053569Y-31682191D01*
X72143624Y-30880985D01*
X72948045Y-30559066D01*
X73694913Y-30838908D01*
X74497592Y-31763024D01*
X74672260Y-32017256D01*
X75379010Y-31061869D01*
X76218625Y-30012800D01*
X77202721Y-28909900D01*
X78160886Y-27935524D01*
X78922707Y-27272022D01*
X79876099Y-26690036D01*
X81246546Y-25965261D01*
X82538975Y-25347332D01*
X83258311Y-25085882D01*
X83718673Y-25435481D01*
X84220972Y-26362611D01*
X84686690Y-27684774D01*
X85037307Y-29219469D01*
X85213839Y-30263744D01*
X86149958Y-29556373D01*
X87020352Y-28896244D01*
X87798420Y-28302622D01*
X88776867Y-27577522D01*
X89646247Y-27008545D01*
X90694417Y-26407387D01*
X92221169Y-25591273D01*
X93239927Y-25133683D01*
X94150468Y-24855272D01*
X95097154Y-24617824D01*
X95338331Y-24815490D01*
%TD*%
M02*
