%TF.GenerationSoftware,KiCad,Pcbnew,6.0.7-f9a2dced07~116~ubuntu20.04.1*%
%TF.CreationDate,2022-08-27T16:54:04+02:00*%
%TF.ProjectId,demoDino,64656d6f-4469-46e6-9f2e-6b696361645f,rev?*%
%TF.SameCoordinates,Original*%
%TF.FileFunction,Drillmap*%
%TF.FilePolarity,Positive*%
%FSLAX45Y45*%
G04 Gerber Fmt 4.5, Leading zero omitted, Abs format (unit mm)*
G04 Created by KiCad (PCBNEW 6.0.7-f9a2dced07~116~ubuntu20.04.1) date 2022-08-27 16:54:04*
%MOMM*%
%LPD*%
G01*
G04 APERTURE LIST*
%ADD10C,0.200000*%
G04 APERTURE END LIST*
D10*
X2649366Y-11053085D02*
X2649366Y-10853085D01*
X2696985Y-10853085D01*
X2725556Y-10862609D01*
X2744604Y-10881657D01*
X2754128Y-10900704D01*
X2763651Y-10938800D01*
X2763651Y-10967371D01*
X2754128Y-11005466D01*
X2744604Y-11024514D01*
X2725556Y-11043561D01*
X2696985Y-11053085D01*
X2649366Y-11053085D01*
X2849366Y-11053085D02*
X2849366Y-10919752D01*
X2849366Y-10957847D02*
X2858889Y-10938800D01*
X2868413Y-10929276D01*
X2887461Y-10919752D01*
X2906509Y-10919752D01*
X2973175Y-11053085D02*
X2973175Y-10919752D01*
X2973175Y-10853085D02*
X2963651Y-10862609D01*
X2973175Y-10872133D01*
X2982699Y-10862609D01*
X2973175Y-10853085D01*
X2973175Y-10872133D01*
X3096985Y-11053085D02*
X3077937Y-11043561D01*
X3068413Y-11024514D01*
X3068413Y-10853085D01*
X3201747Y-11053085D02*
X3182699Y-11043561D01*
X3173175Y-11024514D01*
X3173175Y-10853085D01*
X3430318Y-11053085D02*
X3430318Y-10853085D01*
X3496985Y-10995942D01*
X3563651Y-10853085D01*
X3563651Y-11053085D01*
X3744604Y-11053085D02*
X3744604Y-10948323D01*
X3735080Y-10929276D01*
X3716032Y-10919752D01*
X3677937Y-10919752D01*
X3658889Y-10929276D01*
X3744604Y-11043561D02*
X3725556Y-11053085D01*
X3677937Y-11053085D01*
X3658889Y-11043561D01*
X3649366Y-11024514D01*
X3649366Y-11005466D01*
X3658889Y-10986419D01*
X3677937Y-10976895D01*
X3725556Y-10976895D01*
X3744604Y-10967371D01*
X3839842Y-10919752D02*
X3839842Y-11119752D01*
X3839842Y-10929276D02*
X3858889Y-10919752D01*
X3896985Y-10919752D01*
X3916032Y-10929276D01*
X3925556Y-10938800D01*
X3935080Y-10957847D01*
X3935080Y-11014990D01*
X3925556Y-11034038D01*
X3916032Y-11043561D01*
X3896985Y-11053085D01*
X3858889Y-11053085D01*
X3839842Y-11043561D01*
X4020794Y-11034038D02*
X4030318Y-11043561D01*
X4020794Y-11053085D01*
X4011270Y-11043561D01*
X4020794Y-11034038D01*
X4020794Y-11053085D01*
X4020794Y-10929276D02*
X4030318Y-10938800D01*
X4020794Y-10948323D01*
X4011270Y-10938800D01*
X4020794Y-10929276D01*
X4020794Y-10948323D01*
M02*
