%TF.GenerationSoftware,KiCad,Pcbnew,7.0.1*%
%TF.CreationDate,2023-04-19T22:10:58+02:00*%
%TF.ProjectId,Dino,44696e6f-2e6b-4696-9361-645f70636258,rev?*%
%TF.SameCoordinates,Original*%
%TF.FileFunction,Legend,Top*%
%TF.FilePolarity,Positive*%
%FSLAX46Y46*%
G04 Gerber Fmt 4.6, Leading zero omitted, Abs format (unit mm)*
G04 Created by KiCad (PCBNEW 7.0.1) date 2023-04-19 22:10:58*
%MOMM*%
%LPD*%
G01*
G04 APERTURE LIST*
G04 APERTURE END LIST*
%TO.C,svg2mod*%
G36*
X84802475Y-102373665D02*
G01*
X84741391Y-103221030D01*
X83585524Y-103369040D01*
X83340486Y-102846406D01*
X83561164Y-102107041D01*
X84074183Y-101731560D01*
X84802475Y-102373665D01*
G37*
G36*
X80189617Y-101906875D02*
G01*
X80600285Y-102625929D01*
X80611280Y-103390180D01*
X80095528Y-103600693D01*
X79363788Y-103009590D01*
X78964904Y-101981655D01*
X79582275Y-101588250D01*
X80189617Y-101906875D01*
G37*
G36*
X57246563Y-103648531D02*
G01*
X57478149Y-104705429D01*
X57195565Y-105396490D01*
X56168958Y-105412144D01*
X55360742Y-105037040D01*
X55390580Y-104252027D01*
X55954403Y-103408776D01*
X56683411Y-103058910D01*
X57246563Y-103648531D01*
G37*
G36*
X70264855Y-102408160D02*
G01*
X70567918Y-102793440D01*
X70382321Y-102964950D01*
X69708065Y-103300890D01*
X68984053Y-103439730D01*
X68827068Y-103021320D01*
X69038443Y-102268463D01*
X69543613Y-101992320D01*
X70264855Y-102408160D01*
G37*
G36*
X72361331Y-101929035D02*
G01*
X72038594Y-102612540D01*
X71244523Y-102842760D01*
X70847488Y-102922660D01*
X70847488Y-102551470D01*
X71048875Y-101751173D01*
X71571079Y-101442590D01*
X71571079Y-101442570D01*
X72361331Y-101929035D01*
G37*
G36*
X95917998Y-105344804D02*
G01*
X96222539Y-106329160D01*
X95434465Y-106615815D01*
X94455847Y-106411460D01*
X94293609Y-105538165D01*
X94810595Y-104835060D01*
X95064322Y-104809160D01*
X95064322Y-104809150D01*
X95917998Y-105344804D01*
G37*
G36*
X98320493Y-105568020D02*
G01*
X98529583Y-106143610D01*
X97749606Y-106284560D01*
X97016617Y-106383160D01*
X96922637Y-106136490D01*
X97031567Y-105465305D01*
X97629784Y-105081640D01*
X98069107Y-105037040D01*
X98320493Y-105568020D01*
G37*
G36*
X59098465Y-103672090D02*
G01*
X59817205Y-104173923D01*
X60162710Y-104943070D01*
X60165110Y-105340110D01*
X59011592Y-105340110D01*
X57855725Y-105340110D01*
X57855725Y-104896090D01*
X58292699Y-104015090D01*
X58729673Y-103578110D01*
X59098465Y-103672090D01*
G37*
G36*
X68056870Y-102254564D02*
G01*
X68223286Y-103195140D01*
X68176306Y-103681450D01*
X67744030Y-103723750D01*
X67136660Y-103390238D01*
X66875341Y-102604392D01*
X67137905Y-101900680D01*
X67539639Y-101785560D01*
X67539634Y-101785550D01*
X68056870Y-102254564D01*
G37*
G36*
X81699012Y-101917200D02*
G01*
X82280229Y-102153086D01*
X82631694Y-102901560D01*
X82713924Y-103423110D01*
X82373272Y-103512310D01*
X81494736Y-103423876D01*
X81052375Y-102845114D01*
X81306679Y-102116820D01*
X81699016Y-101917120D01*
X81699012Y-101917200D01*
G37*
G36*
X92418990Y-104038900D02*
G01*
X93164734Y-104456145D01*
X93610097Y-105636440D01*
X93694667Y-106350640D01*
X93492624Y-106345640D01*
X92711198Y-105834726D01*
X92134902Y-104839654D01*
X92202845Y-104118480D01*
X92418983Y-104038580D01*
X92418990Y-104038900D01*
G37*
G36*
X54940216Y-101184170D02*
G01*
X55089857Y-102010425D01*
X55100140Y-103393242D01*
X54963706Y-104339310D01*
X54410844Y-104530896D01*
X53808627Y-103863737D01*
X53525919Y-102746470D01*
X53822054Y-101565909D01*
X54477396Y-101012670D01*
X54477398Y-101012670D01*
X54940216Y-101184170D01*
G37*
%TD*%
M02*
