%TF.GenerationSoftware,KiCad,Pcbnew,7.0.1*%
%TF.CreationDate,2023-04-19T22:10:58+02:00*%
%TF.ProjectId,Dino,44696e6f-2e6b-4696-9361-645f70636258,rev?*%
%TF.SameCoordinates,Original*%
%TF.FileFunction,Legend,Bot*%
%TF.FilePolarity,Positive*%
%FSLAX46Y46*%
G04 Gerber Fmt 4.6, Leading zero omitted, Abs format (unit mm)*
G04 Created by KiCad (PCBNEW 7.0.1) date 2023-04-19 22:10:58*
%MOMM*%
%LPD*%
G01*
G04 APERTURE LIST*
%ADD10C,0.150000*%
%ADD11C,0.120000*%
G04 APERTURE END LIST*
D10*
%TO.C,D4*%
X48047135Y-76388685D02*
X48305954Y-75422759D01*
X48305954Y-75422759D02*
X48075971Y-75361136D01*
X48075971Y-75361136D02*
X47925657Y-75370158D01*
X47925657Y-75370158D02*
X47809015Y-75437502D01*
X47809015Y-75437502D02*
X47738369Y-75517170D01*
X47738369Y-75517170D02*
X47643074Y-75688831D01*
X47643074Y-75688831D02*
X47606100Y-75826820D01*
X47606100Y-75826820D02*
X47602797Y-76023131D01*
X47602797Y-76023131D02*
X47624144Y-76127449D01*
X47624144Y-76127449D02*
X47691488Y-76244091D01*
X47691488Y-76244091D02*
X47817152Y-76327062D01*
X47817152Y-76327062D02*
X48047135Y-76388685D01*
X46839787Y-75374993D02*
X46667241Y-76018944D01*
X47168367Y-75068645D02*
X47213478Y-75820216D01*
X47213478Y-75820216D02*
X46615524Y-75659994D01*
X51669107Y-73082513D02*
X50933163Y-72885318D01*
X51202537Y-73351887D02*
X51399733Y-72615944D01*
%TO.C,BT2*%
X99760714Y-64613809D02*
X99617857Y-64661428D01*
X99617857Y-64661428D02*
X99570238Y-64709047D01*
X99570238Y-64709047D02*
X99522619Y-64804285D01*
X99522619Y-64804285D02*
X99522619Y-64947142D01*
X99522619Y-64947142D02*
X99570238Y-65042380D01*
X99570238Y-65042380D02*
X99617857Y-65090000D01*
X99617857Y-65090000D02*
X99713095Y-65137619D01*
X99713095Y-65137619D02*
X100094047Y-65137619D01*
X100094047Y-65137619D02*
X100094047Y-64137619D01*
X100094047Y-64137619D02*
X99760714Y-64137619D01*
X99760714Y-64137619D02*
X99665476Y-64185238D01*
X99665476Y-64185238D02*
X99617857Y-64232857D01*
X99617857Y-64232857D02*
X99570238Y-64328095D01*
X99570238Y-64328095D02*
X99570238Y-64423333D01*
X99570238Y-64423333D02*
X99617857Y-64518571D01*
X99617857Y-64518571D02*
X99665476Y-64566190D01*
X99665476Y-64566190D02*
X99760714Y-64613809D01*
X99760714Y-64613809D02*
X100094047Y-64613809D01*
X99236904Y-64137619D02*
X98665476Y-64137619D01*
X98951190Y-65137619D02*
X98951190Y-64137619D01*
X98379761Y-64232857D02*
X98332142Y-64185238D01*
X98332142Y-64185238D02*
X98236904Y-64137619D01*
X98236904Y-64137619D02*
X97998809Y-64137619D01*
X97998809Y-64137619D02*
X97903571Y-64185238D01*
X97903571Y-64185238D02*
X97855952Y-64232857D01*
X97855952Y-64232857D02*
X97808333Y-64328095D01*
X97808333Y-64328095D02*
X97808333Y-64423333D01*
X97808333Y-64423333D02*
X97855952Y-64566190D01*
X97855952Y-64566190D02*
X98427380Y-65137619D01*
X98427380Y-65137619D02*
X97808333Y-65137619D01*
%TO.C,SW2*%
X85933332Y-85665000D02*
X85790475Y-85712619D01*
X85790475Y-85712619D02*
X85552380Y-85712619D01*
X85552380Y-85712619D02*
X85457142Y-85665000D01*
X85457142Y-85665000D02*
X85409523Y-85617380D01*
X85409523Y-85617380D02*
X85361904Y-85522142D01*
X85361904Y-85522142D02*
X85361904Y-85426904D01*
X85361904Y-85426904D02*
X85409523Y-85331666D01*
X85409523Y-85331666D02*
X85457142Y-85284047D01*
X85457142Y-85284047D02*
X85552380Y-85236428D01*
X85552380Y-85236428D02*
X85742856Y-85188809D01*
X85742856Y-85188809D02*
X85838094Y-85141190D01*
X85838094Y-85141190D02*
X85885713Y-85093571D01*
X85885713Y-85093571D02*
X85933332Y-84998333D01*
X85933332Y-84998333D02*
X85933332Y-84903095D01*
X85933332Y-84903095D02*
X85885713Y-84807857D01*
X85885713Y-84807857D02*
X85838094Y-84760238D01*
X85838094Y-84760238D02*
X85742856Y-84712619D01*
X85742856Y-84712619D02*
X85504761Y-84712619D01*
X85504761Y-84712619D02*
X85361904Y-84760238D01*
X85028570Y-84712619D02*
X84790475Y-85712619D01*
X84790475Y-85712619D02*
X84599999Y-84998333D01*
X84599999Y-84998333D02*
X84409523Y-85712619D01*
X84409523Y-85712619D02*
X84171428Y-84712619D01*
X83838094Y-84807857D02*
X83790475Y-84760238D01*
X83790475Y-84760238D02*
X83695237Y-84712619D01*
X83695237Y-84712619D02*
X83457142Y-84712619D01*
X83457142Y-84712619D02*
X83361904Y-84760238D01*
X83361904Y-84760238D02*
X83314285Y-84807857D01*
X83314285Y-84807857D02*
X83266666Y-84903095D01*
X83266666Y-84903095D02*
X83266666Y-84998333D01*
X83266666Y-84998333D02*
X83314285Y-85141190D01*
X83314285Y-85141190D02*
X83885713Y-85712619D01*
X83885713Y-85712619D02*
X83266666Y-85712619D01*
X89155952Y-90337619D02*
X89155952Y-89337619D01*
X89155952Y-89337619D02*
X88775000Y-89337619D01*
X88775000Y-89337619D02*
X88679762Y-89385238D01*
X88679762Y-89385238D02*
X88632143Y-89432857D01*
X88632143Y-89432857D02*
X88584524Y-89528095D01*
X88584524Y-89528095D02*
X88584524Y-89670952D01*
X88584524Y-89670952D02*
X88632143Y-89766190D01*
X88632143Y-89766190D02*
X88679762Y-89813809D01*
X88679762Y-89813809D02*
X88775000Y-89861428D01*
X88775000Y-89861428D02*
X89155952Y-89861428D01*
X87727381Y-89670952D02*
X87727381Y-90337619D01*
X88155952Y-89670952D02*
X88155952Y-90194761D01*
X88155952Y-90194761D02*
X88108333Y-90290000D01*
X88108333Y-90290000D02*
X88013095Y-90337619D01*
X88013095Y-90337619D02*
X87870238Y-90337619D01*
X87870238Y-90337619D02*
X87775000Y-90290000D01*
X87775000Y-90290000D02*
X87727381Y-90242380D01*
X87298809Y-90290000D02*
X87203571Y-90337619D01*
X87203571Y-90337619D02*
X87013095Y-90337619D01*
X87013095Y-90337619D02*
X86917857Y-90290000D01*
X86917857Y-90290000D02*
X86870238Y-90194761D01*
X86870238Y-90194761D02*
X86870238Y-90147142D01*
X86870238Y-90147142D02*
X86917857Y-90051904D01*
X86917857Y-90051904D02*
X87013095Y-90004285D01*
X87013095Y-90004285D02*
X87155952Y-90004285D01*
X87155952Y-90004285D02*
X87251190Y-89956666D01*
X87251190Y-89956666D02*
X87298809Y-89861428D01*
X87298809Y-89861428D02*
X87298809Y-89813809D01*
X87298809Y-89813809D02*
X87251190Y-89718571D01*
X87251190Y-89718571D02*
X87155952Y-89670952D01*
X87155952Y-89670952D02*
X87013095Y-89670952D01*
X87013095Y-89670952D02*
X86917857Y-89718571D01*
X86441666Y-90337619D02*
X86441666Y-89337619D01*
X86013095Y-90337619D02*
X86013095Y-89813809D01*
X86013095Y-89813809D02*
X86060714Y-89718571D01*
X86060714Y-89718571D02*
X86155952Y-89670952D01*
X86155952Y-89670952D02*
X86298809Y-89670952D01*
X86298809Y-89670952D02*
X86394047Y-89718571D01*
X86394047Y-89718571D02*
X86441666Y-89766190D01*
X84441666Y-89813809D02*
X84298809Y-89861428D01*
X84298809Y-89861428D02*
X84251190Y-89909047D01*
X84251190Y-89909047D02*
X84203571Y-90004285D01*
X84203571Y-90004285D02*
X84203571Y-90147142D01*
X84203571Y-90147142D02*
X84251190Y-90242380D01*
X84251190Y-90242380D02*
X84298809Y-90290000D01*
X84298809Y-90290000D02*
X84394047Y-90337619D01*
X84394047Y-90337619D02*
X84774999Y-90337619D01*
X84774999Y-90337619D02*
X84774999Y-89337619D01*
X84774999Y-89337619D02*
X84441666Y-89337619D01*
X84441666Y-89337619D02*
X84346428Y-89385238D01*
X84346428Y-89385238D02*
X84298809Y-89432857D01*
X84298809Y-89432857D02*
X84251190Y-89528095D01*
X84251190Y-89528095D02*
X84251190Y-89623333D01*
X84251190Y-89623333D02*
X84298809Y-89718571D01*
X84298809Y-89718571D02*
X84346428Y-89766190D01*
X84346428Y-89766190D02*
X84441666Y-89813809D01*
X84441666Y-89813809D02*
X84774999Y-89813809D01*
X83346428Y-89670952D02*
X83346428Y-90337619D01*
X83774999Y-89670952D02*
X83774999Y-90194761D01*
X83774999Y-90194761D02*
X83727380Y-90290000D01*
X83727380Y-90290000D02*
X83632142Y-90337619D01*
X83632142Y-90337619D02*
X83489285Y-90337619D01*
X83489285Y-90337619D02*
X83394047Y-90290000D01*
X83394047Y-90290000D02*
X83346428Y-90242380D01*
X83013094Y-89670952D02*
X82632142Y-89670952D01*
X82870237Y-89337619D02*
X82870237Y-90194761D01*
X82870237Y-90194761D02*
X82822618Y-90290000D01*
X82822618Y-90290000D02*
X82727380Y-90337619D01*
X82727380Y-90337619D02*
X82632142Y-90337619D01*
X82441665Y-89670952D02*
X82060713Y-89670952D01*
X82298808Y-89337619D02*
X82298808Y-90194761D01*
X82298808Y-90194761D02*
X82251189Y-90290000D01*
X82251189Y-90290000D02*
X82155951Y-90337619D01*
X82155951Y-90337619D02*
X82060713Y-90337619D01*
X81584522Y-90337619D02*
X81679760Y-90290000D01*
X81679760Y-90290000D02*
X81727379Y-90242380D01*
X81727379Y-90242380D02*
X81774998Y-90147142D01*
X81774998Y-90147142D02*
X81774998Y-89861428D01*
X81774998Y-89861428D02*
X81727379Y-89766190D01*
X81727379Y-89766190D02*
X81679760Y-89718571D01*
X81679760Y-89718571D02*
X81584522Y-89670952D01*
X81584522Y-89670952D02*
X81441665Y-89670952D01*
X81441665Y-89670952D02*
X81346427Y-89718571D01*
X81346427Y-89718571D02*
X81298808Y-89766190D01*
X81298808Y-89766190D02*
X81251189Y-89861428D01*
X81251189Y-89861428D02*
X81251189Y-90147142D01*
X81251189Y-90147142D02*
X81298808Y-90242380D01*
X81298808Y-90242380D02*
X81346427Y-90290000D01*
X81346427Y-90290000D02*
X81441665Y-90337619D01*
X81441665Y-90337619D02*
X81584522Y-90337619D01*
X80822617Y-89670952D02*
X80822617Y-90337619D01*
X80822617Y-89766190D02*
X80774998Y-89718571D01*
X80774998Y-89718571D02*
X80679760Y-89670952D01*
X80679760Y-89670952D02*
X80536903Y-89670952D01*
X80536903Y-89670952D02*
X80441665Y-89718571D01*
X80441665Y-89718571D02*
X80394046Y-89813809D01*
X80394046Y-89813809D02*
X80394046Y-90337619D01*
%TO.C,D2*%
X104886691Y-59830168D02*
X104386691Y-58964143D01*
X104386691Y-58964143D02*
X104180494Y-59083190D01*
X104180494Y-59083190D02*
X104080586Y-59195858D01*
X104080586Y-59195858D02*
X104045726Y-59325956D01*
X104045726Y-59325956D02*
X104052106Y-59432244D01*
X104052106Y-59432244D02*
X104106105Y-59621011D01*
X104106105Y-59621011D02*
X104177533Y-59744729D01*
X104177533Y-59744729D02*
X104314011Y-59885876D01*
X104314011Y-59885876D02*
X104402869Y-59944545D01*
X104402869Y-59944545D02*
X104532967Y-59979405D01*
X104532967Y-59979405D02*
X104680494Y-59949216D01*
X104680494Y-59949216D02*
X104886691Y-59830168D01*
X103609524Y-59522812D02*
X103544475Y-59505382D01*
X103544475Y-59505382D02*
X103438187Y-59511762D01*
X103438187Y-59511762D02*
X103231990Y-59630809D01*
X103231990Y-59630809D02*
X103173321Y-59719668D01*
X103173321Y-59719668D02*
X103155891Y-59784716D01*
X103155891Y-59784716D02*
X103162271Y-59891005D01*
X103162271Y-59891005D02*
X103209890Y-59973483D01*
X103209890Y-59973483D02*
X103322558Y-60073392D01*
X103322558Y-60073392D02*
X104103144Y-60282549D01*
X104103144Y-60282549D02*
X103567033Y-60592073D01*
X105109996Y-54931230D02*
X104450167Y-55312182D01*
X104970557Y-55451621D02*
X104589605Y-54791792D01*
%TO.C,D1*%
X113713094Y-78762619D02*
X113713094Y-77762619D01*
X113713094Y-77762619D02*
X113474999Y-77762619D01*
X113474999Y-77762619D02*
X113332142Y-77810238D01*
X113332142Y-77810238D02*
X113236904Y-77905476D01*
X113236904Y-77905476D02*
X113189285Y-78000714D01*
X113189285Y-78000714D02*
X113141666Y-78191190D01*
X113141666Y-78191190D02*
X113141666Y-78334047D01*
X113141666Y-78334047D02*
X113189285Y-78524523D01*
X113189285Y-78524523D02*
X113236904Y-78619761D01*
X113236904Y-78619761D02*
X113332142Y-78715000D01*
X113332142Y-78715000D02*
X113474999Y-78762619D01*
X113474999Y-78762619D02*
X113713094Y-78762619D01*
X112189285Y-78762619D02*
X112760713Y-78762619D01*
X112474999Y-78762619D02*
X112474999Y-77762619D01*
X112474999Y-77762619D02*
X112570237Y-77905476D01*
X112570237Y-77905476D02*
X112665475Y-78000714D01*
X112665475Y-78000714D02*
X112760713Y-78048333D01*
X120380951Y-78581666D02*
X119619047Y-78581666D01*
X119999999Y-78962619D02*
X119999999Y-78200714D01*
%TO.C,D3*%
X69137242Y-63455606D02*
X69559861Y-62549298D01*
X69559861Y-62549298D02*
X69344073Y-62448675D01*
X69344073Y-62448675D02*
X69194476Y-62431458D01*
X69194476Y-62431458D02*
X69067911Y-62477524D01*
X69067911Y-62477524D02*
X68984504Y-62543714D01*
X68984504Y-62543714D02*
X68860848Y-62696220D01*
X68860848Y-62696220D02*
X68800474Y-62825692D01*
X68800474Y-62825692D02*
X68763133Y-63018447D01*
X68763133Y-63018447D02*
X68766041Y-63124887D01*
X68766041Y-63124887D02*
X68812107Y-63251451D01*
X68812107Y-63251451D02*
X68921455Y-63354983D01*
X68921455Y-63354983D02*
X69137242Y-63455606D01*
X68739868Y-62166929D02*
X68178820Y-61905309D01*
X68178820Y-61905309D02*
X68319925Y-62391441D01*
X68319925Y-62391441D02*
X68190453Y-62331067D01*
X68190453Y-62331067D02*
X68084013Y-62333976D01*
X68084013Y-62333976D02*
X68020731Y-62357008D01*
X68020731Y-62357008D02*
X67937324Y-62423199D01*
X67937324Y-62423199D02*
X67836701Y-62638986D01*
X67836701Y-62638986D02*
X67839609Y-62745426D01*
X67839609Y-62745426D02*
X67862642Y-62808708D01*
X67862642Y-62808708D02*
X67928832Y-62892115D01*
X67928832Y-62892115D02*
X68187777Y-63012863D01*
X68187777Y-63012863D02*
X68294217Y-63009955D01*
X68294217Y-63009955D02*
X68357499Y-62986922D01*
X74185745Y-59760012D02*
X73495225Y-59438017D01*
X73679488Y-59944274D02*
X74001483Y-59253754D01*
D11*
%TO.C,BT2*%
X99400000Y-73825000D02*
X99400000Y-72275000D01*
X99400000Y-66125000D02*
X99400000Y-67675000D01*
X97850000Y-74975000D02*
X97850000Y-76975000D01*
X96850000Y-75975000D02*
X98850000Y-75975000D01*
X96200000Y-76525000D02*
X96200000Y-73825000D01*
X96200000Y-73825000D02*
X99400000Y-73825000D01*
X96200000Y-66125000D02*
X99400000Y-66125000D01*
X96200000Y-61625000D02*
X96200000Y-66125000D01*
X96200000Y-61625000D02*
X73500000Y-61625000D01*
X94400000Y-78325000D02*
X96200000Y-76525000D01*
X73500000Y-78325000D02*
X94400000Y-78325000D01*
X73500000Y-78325000D02*
X73500000Y-73825000D01*
X73500000Y-73825000D02*
X70300000Y-73825000D01*
X73500000Y-66125000D02*
X70300000Y-66125000D01*
X73500000Y-61625000D02*
X73500000Y-66125000D01*
X70300000Y-73825000D02*
X70300000Y-72275000D01*
X70300000Y-66125000D02*
X70300000Y-67675000D01*
%TO.C,SW2*%
X86600000Y-85250000D02*
G75*
G03*
X86600000Y-85250000I-2000000J0D01*
G01*
X88100000Y-85250000D02*
G75*
G03*
X88100000Y-85250000I-3500000J0D01*
G01*
%TD*%
M02*
